<svg xmlns="http://www.w3.org/2000/svg" version="1.1" width="100%" height="100%" viewBox="0 0 35 35"><desc>Created with Raphaël</desc><defs><linearGradient id="r-969b1f2821744d078496a19fcfa265b7" x1="0" y1="1" x2="6.123233995736766e-17" y2="0"><stop offset="0%" stop-color="#0050af"></stop><stop offset="100%" stop-color="#002c62"></stop></linearGradient><linearGradient id="r-c9735115d23a4150a11d59025970d646" x1="0" y1="1" x2="6.123233995736766e-17" y2="0"><stop offset="0%" stop-color="#0050af"></stop><stop offset="100%" stop-color="#002c62"></stop></linearGradient><linearGradient id="r-1b692cadf1c24aca8f300765abf5084d" x1="0" y1="1" x2="6.123233995736766e-17" y2="0"><stop offset="0%" stop-color="#0050af"></stop><stop offset="100%" stop-color="#002c62"></stop></linearGradient></defs><path fill="none" stroke="#ffffff" d="M19.317999999999998,11.677C19.389,11.648,19.465999999999998,11.631,19.546999999999997,11.631H31.495999999999995C28.962999999999994,7.716,24.557999999999996,5.125,19.546999999999997,5.125C14.529999999999998,5.125,10.118999999999996,7.723,7.587999999999997,11.647L11.878999999999998,19.078C12.017999999999997,15.041,15.273999999999997,11.796,19.317999999999998,11.677ZM32.196,12.84H23.616999999999997C25.781999999999996,14.197,27.221999999999998,16.603,27.221999999999998,19.346C27.221999999999998,20.667,26.887999999999998,21.91,26.301,22.995C26.288999999999998,23.066000000000003,26.266,23.137,26.227999999999998,23.204L20.255,33.551C27.781,33.183,33.769,26.964000000000002,33.769,19.346000000000004C33.769999999999996,17.002000000000002,33.201,14.791000000000004,32.196,12.840000000000003ZM19.546999999999997,27.022C16.785999999999998,27.022,14.365999999999996,25.564,13.013999999999996,23.375999999999998C12.955999999999996,23.33,12.904999999999996,23.272999999999996,12.864999999999997,23.205L6.889999999999997,12.854999999999999C5.889999999999997,14.800999999999998,5.3249999999999975,17.008,5.3249999999999975,19.346999999999998C5.3249999999999975,26.970999999999997,11.323999999999998,33.193,18.858999999999998,33.552L23.145999999999997,26.127C22.072999999999997,26.698,20.848,27.022,19.546999999999997,27.022ZM13.079999999999998,19.346999999999998C13.079999999999998,21.134999999999998,13.802999999999999,22.747999999999998,14.973999999999998,23.919999999999998C16.145999999999997,25.092,17.759,25.814999999999998,19.546999999999997,25.814999999999998C21.334999999999997,25.814999999999998,22.947999999999997,25.092,24.119999999999997,23.919999999999998S26.014999999999997,21.134999999999998,26.014999999999997,19.346999999999998C26.014999999999997,17.558999999999997,25.291999999999998,15.946999999999997,24.119999999999997,14.773999999999997C22.947999999999997,13.602999999999998,21.334999999999997,12.879999999999997,19.546999999999997,12.879999999999997C17.758999999999997,12.879999999999997,16.145999999999997,13.602999999999998,14.973999999999997,14.773999999999997C13.802999999999997,15.945999999999998,13.080999999999996,17.558999999999997,13.079999999999997,19.346999999999998Z" style="stroke-width: 3px; stroke-linejoin: round; opacity: 0; " stroke-width="3" stroke-linejoin="round" opacity="0"></path><path fill="url(#r-1b692cadf1c24aca8f300765abf5084d)" stroke="none" d="M19.317999999999998,11.677C19.389,11.648,19.465999999999998,11.631,19.546999999999997,11.631H31.495999999999995C28.962999999999994,7.716,24.557999999999996,5.125,19.546999999999997,5.125C14.529999999999998,5.125,10.118999999999996,7.723,7.587999999999997,11.647L11.878999999999998,19.078C12.017999999999997,15.041,15.273999999999997,11.796,19.317999999999998,11.677ZM32.196,12.84H23.616999999999997C25.781999999999996,14.197,27.221999999999998,16.603,27.221999999999998,19.346C27.221999999999998,20.667,26.887999999999998,21.91,26.301,22.995C26.288999999999998,23.066000000000003,26.266,23.137,26.227999999999998,23.204L20.255,33.551C27.781,33.183,33.769,26.964000000000002,33.769,19.346000000000004C33.769999999999996,17.002000000000002,33.201,14.791000000000004,32.196,12.840000000000003ZM19.546999999999997,27.022C16.785999999999998,27.022,14.365999999999996,25.564,13.013999999999996,23.375999999999998C12.955999999999996,23.33,12.904999999999996,23.272999999999996,12.864999999999997,23.205L6.889999999999997,12.854999999999999C5.889999999999997,14.800999999999998,5.3249999999999975,17.008,5.3249999999999975,19.346999999999998C5.3249999999999975,26.970999999999997,11.323999999999998,33.193,18.858999999999998,33.552L23.145999999999997,26.127C22.072999999999997,26.698,20.848,27.022,19.546999999999997,27.022ZM13.079999999999998,19.346999999999998C13.079999999999998,21.134999999999998,13.802999999999999,22.747999999999998,14.973999999999998,23.919999999999998C16.145999999999997,25.092,17.759,25.814999999999998,19.546999999999997,25.814999999999998C21.334999999999997,25.814999999999998,22.947999999999997,25.092,24.119999999999997,23.919999999999998S26.014999999999997,21.134999999999998,26.014999999999997,19.346999999999998C26.014999999999997,17.558999999999997,25.291999999999998,15.946999999999997,24.119999999999997,14.773999999999997C22.947999999999997,13.602999999999998,21.334999999999997,12.879999999999997,19.546999999999997,12.879999999999997C17.758999999999997,12.879999999999997,16.145999999999997,13.602999999999998,14.973999999999997,14.773999999999997C13.802999999999997,15.945999999999998,13.080999999999996,17.558999999999997,13.079999999999997,19.346999999999998Z" opacity="1" fill-opacity="1" style="opacity: 1; fill-opacity: 1; "></path><rect x="0" y="0" width="32" height="32" r="0" rx="0" ry="0" fill="#000000" stroke="#000" style="opacity: 0; " opacity="0"></rect></svg>