<svg xmlns="http://www.w3.org/2000/svg" version="1.1"><desc>Created with Raphaël</desc><defs><linearGradient id="r-47e994a3bd7c468d8f5190711846de5e" x1="0" y1="1" x2="6.123233995736766e-17" y2="0"><stop offset="0%" stop-color="#0050af"></stop><stop offset="100%" stop-color="#002c62"></stop></linearGradient></defs><path fill="none" stroke="#ffffff" d="M29.372,10.911999999999999C29.279,6.986999999999999,26.07,3.8339999999999987,22.124,3.831999999999999C19.485999999999997,3.8339999999999987,17.182,5.243999999999999,15.915999999999999,7.349999999999999C15.320999999999998,7.022999999999999,14.636,6.831999999999999,13.905999999999999,6.831999999999999C11.626999999999999,6.833999999999999,9.773,8.639,9.689999999999998,10.898C7.296999999999998,11.684,5.564999999999998,13.923,5.562999999999998,16.584C5.562999999999998,19.896,8.249999999999998,22.584,11.562999999999999,22.584V22.582H27.438C30.75,22.582,33.438,19.894000000000002,33.438,16.582C33.434000000000005,13.944,31.732000000000003,11.715,29.372000000000003,10.912ZM27.436,20.584H11.562C9.353,20.578,7.5649999999999995,18.791,7.560999999999999,16.584C7.558999999999999,14.600999999999999,9.011,12.965,10.911,12.651C11.176,12.608,11.413,12.461,11.568,12.237C11.722999999999999,12.015,11.78,11.74,11.731,11.475C11.703,11.326,11.686,11.187,11.686,11.051C11.69,9.826,12.681,8.834,13.906,8.832C14.553,8.832,15.123000000000001,9.110000000000001,15.539000000000001,9.563C15.772000000000002,9.82,16.126,9.938,16.466,9.873000000000001C16.808,9.807,17.092000000000002,9.565000000000001,17.214000000000002,9.242C17.963,7.250000000000001,19.876,5.830000000000001,22.125,5.832000000000001C25.023,5.836,27.369,8.183,27.376,11.082C27.376,11.242,27.367,11.407,27.35,11.578000000000001C27.3,12.096000000000002,27.655,12.562000000000001,28.164,12.657000000000002C30.023000000000003,13.002000000000002,31.437,14.623000000000001,31.435000000000002,16.580000000000002C31.430000000000003,18.791,29.645000000000003,20.578000000000003,27.436000000000003,20.584000000000003ZM20.667,28.09L21.786,26.971C22.175,26.58,22.175,25.946,21.786,25.555C21.394000000000002,25.164,20.761000000000003,25.164,20.371000000000002,25.555L19.252000000000002,26.674L18.133000000000003,25.555C17.742000000000004,25.164,17.108000000000004,25.164,16.718000000000004,25.555C16.327000000000005,25.945999999999998,16.327000000000005,26.58,16.718000000000004,26.971L17.836000000000002,28.088L16.716,29.209C16.327,29.602,16.327,30.23,16.716,30.623C16.911,30.811,17.167,30.916,17.423000000000002,30.916C17.679000000000002,30.916,17.935000000000002,30.812,18.131,30.623L19.251,29.504L20.371000000000002,30.623C20.566000000000003,30.811,20.822000000000003,30.916,21.079,30.916C21.335,30.916,21.591,30.812,21.786,30.623C22.177,30.227,22.177,29.602,21.786,29.209L20.667,28.09ZM29.119,25.817C28.726,25.425,28.094,25.425,27.704,25.817L26.584,26.938L25.464,25.817C25.073,25.425,24.442,25.425,24.049999999999997,25.817C23.659999999999997,26.209,23.659999999999997,26.839,24.049999999999997,27.233L25.168999999999997,28.352L24.049999999999997,29.471C23.659999999999997,29.862000000000002,23.659999999999997,30.493,24.049999999999997,30.884C24.244999999999997,31.079,24.500999999999998,31.178,24.756999999999998,31.178C25.014,31.178,25.27,31.079,25.464,30.884L26.584,29.766000000000002L27.704,30.884C27.898,31.079,28.154,31.178,28.411,31.178C28.667,31.178,28.924000000000003,31.079,29.119,30.884C29.508,30.493000000000002,29.508,29.862000000000002,29.119,29.471L27.999,28.352L29.119,27.233C29.507,26.842,29.507,26.209,29.119,25.817ZM13.334,27.953L14.453,26.834C14.841999999999999,26.44,14.841999999999999,25.813,14.453,25.419999999999998C14.062,25.026,13.427999999999999,25.026,13.038,25.419999999999998L11.919,26.538999999999998L10.799,25.418C10.408,25.028,9.776,25.028,9.384,25.418C8.993,25.814,8.993,26.442,9.384,26.836L10.503,27.953L9.383,29.070999999999998C8.991999999999999,29.464999999999996,8.991999999999999,30.095999999999997,9.383,30.485C9.578999999999999,30.68,9.834999999999999,30.778,10.091,30.778C10.347,30.778,10.601999999999999,30.68,10.798,30.485L11.918,29.366L13.039,30.487C13.234,30.682,13.49,30.779999999999998,13.746,30.779999999999998S14.259,30.682,14.454,30.487C14.843,30.095999999999997,14.843,29.465,14.454,29.070999999999998L13.334,27.953Z" style="stroke-width: 3px; stroke-linejoin: round; opacity: 0; " stroke-width="3" stroke-linejoin="round" opacity="0"></path><path fill="url(#r-47e994a3bd7c468d8f5190711846de5e)" stroke="none" d="M29.372,10.911999999999999C29.279,6.986999999999999,26.07,3.8339999999999987,22.124,3.831999999999999C19.485999999999997,3.8339999999999987,17.182,5.243999999999999,15.915999999999999,7.349999999999999C15.320999999999998,7.022999999999999,14.636,6.831999999999999,13.905999999999999,6.831999999999999C11.626999999999999,6.833999999999999,9.773,8.639,9.689999999999998,10.898C7.296999999999998,11.684,5.564999999999998,13.923,5.562999999999998,16.584C5.562999999999998,19.896,8.249999999999998,22.584,11.562999999999999,22.584V22.582H27.438C30.75,22.582,33.438,19.894000000000002,33.438,16.582C33.434000000000005,13.944,31.732000000000003,11.715,29.372000000000003,10.912ZM27.436,20.584H11.562C9.353,20.578,7.5649999999999995,18.791,7.560999999999999,16.584C7.558999999999999,14.600999999999999,9.011,12.965,10.911,12.651C11.176,12.608,11.413,12.461,11.568,12.237C11.722999999999999,12.015,11.78,11.74,11.731,11.475C11.703,11.326,11.686,11.187,11.686,11.051C11.69,9.826,12.681,8.834,13.906,8.832C14.553,8.832,15.123000000000001,9.110000000000001,15.539000000000001,9.563C15.772000000000002,9.82,16.126,9.938,16.466,9.873000000000001C16.808,9.807,17.092000000000002,9.565000000000001,17.214000000000002,9.242C17.963,7.250000000000001,19.876,5.830000000000001,22.125,5.832000000000001C25.023,5.836,27.369,8.183,27.376,11.082C27.376,11.242,27.367,11.407,27.35,11.578000000000001C27.3,12.096000000000002,27.655,12.562000000000001,28.164,12.657000000000002C30.023000000000003,13.002000000000002,31.437,14.623000000000001,31.435000000000002,16.580000000000002C31.430000000000003,18.791,29.645000000000003,20.578000000000003,27.436000000000003,20.584000000000003ZM20.667,28.09L21.786,26.971C22.175,26.58,22.175,25.946,21.786,25.555C21.394000000000002,25.164,20.761000000000003,25.164,20.371000000000002,25.555L19.252000000000002,26.674L18.133000000000003,25.555C17.742000000000004,25.164,17.108000000000004,25.164,16.718000000000004,25.555C16.327000000000005,25.945999999999998,16.327000000000005,26.58,16.718000000000004,26.971L17.836000000000002,28.088L16.716,29.209C16.327,29.602,16.327,30.23,16.716,30.623C16.911,30.811,17.167,30.916,17.423000000000002,30.916C17.679000000000002,30.916,17.935000000000002,30.812,18.131,30.623L19.251,29.504L20.371000000000002,30.623C20.566000000000003,30.811,20.822000000000003,30.916,21.079,30.916C21.335,30.916,21.591,30.812,21.786,30.623C22.177,30.227,22.177,29.602,21.786,29.209L20.667,28.09ZM29.119,25.817C28.726,25.425,28.094,25.425,27.704,25.817L26.584,26.938L25.464,25.817C25.073,25.425,24.442,25.425,24.049999999999997,25.817C23.659999999999997,26.209,23.659999999999997,26.839,24.049999999999997,27.233L25.168999999999997,28.352L24.049999999999997,29.471C23.659999999999997,29.862000000000002,23.659999999999997,30.493,24.049999999999997,30.884C24.244999999999997,31.079,24.500999999999998,31.178,24.756999999999998,31.178C25.014,31.178,25.27,31.079,25.464,30.884L26.584,29.766000000000002L27.704,30.884C27.898,31.079,28.154,31.178,28.411,31.178C28.667,31.178,28.924000000000003,31.079,29.119,30.884C29.508,30.493000000000002,29.508,29.862000000000002,29.119,29.471L27.999,28.352L29.119,27.233C29.507,26.842,29.507,26.209,29.119,25.817ZM13.334,27.953L14.453,26.834C14.841999999999999,26.44,14.841999999999999,25.813,14.453,25.419999999999998C14.062,25.026,13.427999999999999,25.026,13.038,25.419999999999998L11.919,26.538999999999998L10.799,25.418C10.408,25.028,9.776,25.028,9.384,25.418C8.993,25.814,8.993,26.442,9.384,26.836L10.503,27.953L9.383,29.070999999999998C8.991999999999999,29.464999999999996,8.991999999999999,30.095999999999997,9.383,30.485C9.578999999999999,30.68,9.834999999999999,30.778,10.091,30.778C10.347,30.778,10.601999999999999,30.68,10.798,30.485L11.918,29.366L13.039,30.487C13.234,30.682,13.49,30.779999999999998,13.746,30.779999999999998S14.259,30.682,14.454,30.487C14.843,30.095999999999997,14.843,29.465,14.454,29.070999999999998L13.334,27.953Z" opacity="1" fill-opacity="1" style="opacity: 1; fill-opacity: 1; "></path><rect x="0" y="0" width="32" height="32" r="0" rx="0" ry="0" fill="#000000" stroke="#000" style="opacity: 0; " opacity="0"></rect></svg>