<svg xmlns="http://www.w3.org/2000/svg" version="1.1" width="100%" height="100%" viewBox="0 0 35 35">
    <desc>Created with Raphaël</desc>
    <defs>
        <linearGradient id="r-ed0fe15ad6534c2684bcb7a7fef74a2f" x1="0" y1="1" x2="6.123233995736766e-17" y2="0">
            <stop offset="0%" stop-color="#0050af"></stop>
            <stop offset="100%" stop-color="#002c62"></stop>
        </linearGradient>
    </defs>
    <path fill="none" stroke="#ffffff" d="M20,5.466C11.973,5.466,5.465999999999999,11.972999999999999,5.465999999999999,20C5.465999999999999,28.027,11.972999999999999,34.534,20,34.534C28.027,34.534,34.534,28.027,34.534,20C34.534,11.973,28.027,5.465999999999999,20,5.465999999999999ZM21.255,27.880000000000003V29.927000000000003H19.297V27.903000000000002C16.084,27.463,14.676,24.823,14.676,24.823L16.678,23.15C16.678,23.15,17.954,25.372999999999998,20.264,25.372999999999998C21.54,25.372999999999998,22.508,24.689999999999998,22.508,23.523999999999997C22.508,20.794999999999998,15.158999999999999,21.125999999999998,15.158999999999999,16.064999999999998C15.158999999999999,13.864999999999998,16.897,12.279999999999998,19.296,11.905999999999999V9.858999999999998H21.253999999999998V11.904999999999998C22.926,12.124999999999998,24.906,13.004999999999997,24.906,14.897999999999998V16.349999999999998H22.31V15.645999999999997C22.31,14.919999999999998,21.384999999999998,14.435999999999996,20.351,14.435999999999996C19.031,14.435999999999996,18.063,15.095999999999997,18.063,16.019999999999996C18.063,18.813999999999997,25.412,18.131999999999998,25.412,23.434999999999995C25.413,25.613999999999994,23.785,27.505999999999993,21.255,27.879999999999995Z" style="stroke-width: 3px; stroke-linejoin: round; opacity: 0; " stroke-width="3" stroke-linejoin="round" opacity="0"></path>
    <path fill="url(#r-ed0fe15ad6534c2684bcb7a7fef74a2f)" stroke="none" d="M20,5.466C11.973,5.466,5.465999999999999,11.972999999999999,5.465999999999999,20C5.465999999999999,28.027,11.972999999999999,34.534,20,34.534C28.027,34.534,34.534,28.027,34.534,20C34.534,11.973,28.027,5.465999999999999,20,5.465999999999999ZM21.255,27.880000000000003V29.927000000000003H19.297V27.903000000000002C16.084,27.463,14.676,24.823,14.676,24.823L16.678,23.15C16.678,23.15,17.954,25.372999999999998,20.264,25.372999999999998C21.54,25.372999999999998,22.508,24.689999999999998,22.508,23.523999999999997C22.508,20.794999999999998,15.158999999999999,21.125999999999998,15.158999999999999,16.064999999999998C15.158999999999999,13.864999999999998,16.897,12.279999999999998,19.296,11.905999999999999V9.858999999999998H21.253999999999998V11.904999999999998C22.926,12.124999999999998,24.906,13.004999999999997,24.906,14.897999999999998V16.349999999999998H22.31V15.645999999999997C22.31,14.919999999999998,21.384999999999998,14.435999999999996,20.351,14.435999999999996C19.031,14.435999999999996,18.063,15.095999999999997,18.063,16.019999999999996C18.063,18.813999999999997,25.412,18.131999999999998,25.412,23.434999999999995C25.413,25.613999999999994,23.785,27.505999999999993,21.255,27.879999999999995Z" opacity="1" fill-opacity="1" style="opacity: 1; fill-opacity: 1; "></path>
    <rect x="0" y="0" width="32" height="32" r="0" rx="0" ry="0" fill="#000000" stroke="#000" style="opacity: 0; " opacity="0"></rect>
</svg>