<svg xmlns="http://www.w3.org/2000/svg" version="1.1" width="100%" height="100%" viewBox="0 0 32 32">
    <desc>Created with Raphaël</desc>
    <defs>
        <linearGradient id="r-83a15d062fa54baf83c66e68f55558c2" x1="0" y1="1" x2="6.123233995736766e-17" y2="0">
            <stop offset="0%" stop-color="#0050af"></stop>
            <stop offset="100%" stop-color="#002c62"></stop>
        </linearGradient>
    </defs>
    <path fill="none" stroke="#ffffff" d="M31.998,6.266C29.878,4.356,25.073,6.648,22.423000000000002,8.196C21.663,8.076,20.866000000000003,8.011,20.035000000000004,8.011C16.686000000000003,8.011,13.983000000000004,8.995999999999999,11.929000000000004,10.854C9.593000000000004,12.992999999999999,8.298000000000004,15.794,8.298000000000004,19.031C8.298000000000004,19.058999999999997,8.299000000000003,19.087,8.299000000000003,19.115C11.586000000000002,13.964999999999998,16.641000000000005,11.325,17.981,10.627999999999998C18.193,10.528999999999998,18.319000000000003,10.782999999999998,18.122,10.880999999999998C18.107,10.922999999999998,18.107,10.880999999999998,18.122,10.880999999999998C15.868,12.230999999999998,11.687999999999999,16.14,8.975999999999999,21.766999999999996L8.972999999999999,21.759999999999994C7.2559999999999985,25.306999999999995,5.805999999999999,30.288999999999994,8.706,32.117999999999995C10.902999999999999,33.49999999999999,14.835999999999999,31.869999999999994,18.000999999999998,29.799999999999994C18.764999999999997,29.907999999999994,19.567999999999998,29.964999999999993,20.415999999999997,29.964999999999993C26.255999999999997,29.964999999999993,30.352999999999994,26.741999999999994,31.814999999999998,22.040999999999993L23.793,22.026999999999994C23.456,23.687999999999995,22.329,24.574999999999996,20.57,24.574999999999996C18.36,24.574999999999996,16.841,23.363999999999997,16.742,20.562999999999995L31.97,20.548999999999996C31.997999999999998,19.970999999999997,31.927999999999997,19.563999999999997,31.927999999999997,19.112999999999996C31.927999999999997,13.861999999999995,28.784999999999997,9.757999999999996,23.672999999999995,8.449999999999996C25.753999999999994,7.155999999999995,29.646999999999995,5.240999999999996,31.520999999999994,6.768999999999996C32.928,7.908999999999995,32.153999999999996,10.301999999999996,31.815999999999995,11.286999999999995C31.759999999999994,11.540999999999995,32.056,11.582999999999995,32.111999999999995,11.343999999999996C32.81399999999999,9.572999999999997,33.025999999999996,7.1939999999999955,31.997999999999994,6.265999999999996ZM17.272,29.676000000000002C14.802999999999999,31.151000000000003,11.398999999999997,32.215,9.732999999999999,30.965000000000003C8.489999999999998,30.030000000000005,9.036999999999999,27.497000000000003,10.130999999999998,25.027000000000005C10.794999999999998,26.019000000000005,11.625999999999998,26.913000000000004,12.604,27.657000000000004C13.925999999999998,28.651000000000003,15.479,29.324000000000005,17.272,29.676000000000002ZM16.714,17.046C16.756,14.610999999999999,18.500999999999998,13.556,20.331,13.556C22.259,13.556,23.820999999999998,14.668,23.820999999999998,17.046H16.714Z" style="stroke-width: 3px; stroke-linejoin: round; opacity: 0; " stroke-width="3" stroke-linejoin="round" opacity="0"></path>
    <path fill="url(#r-83a15d062fa54baf83c66e68f55558c2)" stroke="none" d="M31.998,6.266C29.878,4.356,25.073,6.648,22.423000000000002,8.196C21.663,8.076,20.866000000000003,8.011,20.035000000000004,8.011C16.686000000000003,8.011,13.983000000000004,8.995999999999999,11.929000000000004,10.854C9.593000000000004,12.992999999999999,8.298000000000004,15.794,8.298000000000004,19.031C8.298000000000004,19.058999999999997,8.299000000000003,19.087,8.299000000000003,19.115C11.586000000000002,13.964999999999998,16.641000000000005,11.325,17.981,10.627999999999998C18.193,10.528999999999998,18.319000000000003,10.782999999999998,18.122,10.880999999999998C18.107,10.922999999999998,18.107,10.880999999999998,18.122,10.880999999999998C15.868,12.230999999999998,11.687999999999999,16.14,8.975999999999999,21.766999999999996L8.972999999999999,21.759999999999994C7.2559999999999985,25.306999999999995,5.805999999999999,30.288999999999994,8.706,32.117999999999995C10.902999999999999,33.49999999999999,14.835999999999999,31.869999999999994,18.000999999999998,29.799999999999994C18.764999999999997,29.907999999999994,19.567999999999998,29.964999999999993,20.415999999999997,29.964999999999993C26.255999999999997,29.964999999999993,30.352999999999994,26.741999999999994,31.814999999999998,22.040999999999993L23.793,22.026999999999994C23.456,23.687999999999995,22.329,24.574999999999996,20.57,24.574999999999996C18.36,24.574999999999996,16.841,23.363999999999997,16.742,20.562999999999995L31.97,20.548999999999996C31.997999999999998,19.970999999999997,31.927999999999997,19.563999999999997,31.927999999999997,19.112999999999996C31.927999999999997,13.861999999999995,28.784999999999997,9.757999999999996,23.672999999999995,8.449999999999996C25.753999999999994,7.155999999999995,29.646999999999995,5.240999999999996,31.520999999999994,6.768999999999996C32.928,7.908999999999995,32.153999999999996,10.301999999999996,31.815999999999995,11.286999999999995C31.759999999999994,11.540999999999995,32.056,11.582999999999995,32.111999999999995,11.343999999999996C32.81399999999999,9.572999999999997,33.025999999999996,7.1939999999999955,31.997999999999994,6.265999999999996ZM17.272,29.676000000000002C14.802999999999999,31.151000000000003,11.398999999999997,32.215,9.732999999999999,30.965000000000003C8.489999999999998,30.030000000000005,9.036999999999999,27.497000000000003,10.130999999999998,25.027000000000005C10.794999999999998,26.019000000000005,11.625999999999998,26.913000000000004,12.604,27.657000000000004C13.925999999999998,28.651000000000003,15.479,29.324000000000005,17.272,29.676000000000002ZM16.714,17.046C16.756,14.610999999999999,18.500999999999998,13.556,20.331,13.556C22.259,13.556,23.820999999999998,14.668,23.820999999999998,17.046H16.714Z" opacity="1" fill-opacity="1" style="opacity: 1; fill-opacity: 1; "></path>
</svg>