<svg xmlns="http://www.w3.org/2000/svg" version="1.1" width="100%" height="100%" viewBox="0 0 35 35"><desc>Created with Raphaël</desc><defs><linearGradient id="r-3efa2ba3a4ae4d7c82c3862976f137f4" x1="0" y1="1" x2="6.123233995736766e-17" y2="0"><stop offset="0%" stop-color="#0050af"></stop><stop offset="100%" stop-color="#002c62"></stop></linearGradient></defs><path fill="none" stroke="#ffffff" d="M32.4,26.469C32.879,25.505000000000003,33.251,24.478,33.495,23.403000000000002C34.448,19.742,34.160999999999994,16.549000000000003,34.160999999999994,16.549000000000003L33.833999999999996,18.653000000000002C33.833999999999996,18.653000000000002,33.364999999999995,14.757000000000001,32.79,13.300000000000002C31.909,11.069000000000003,31.517,11.086000000000002,31.516,11.090000000000003C32.058,12.469000000000003,32.01,13.259000000000004,31.999,13.378000000000004C31.988999999999997,13.362000000000004,31.98,13.346000000000004,31.971999999999998,13.331000000000003C31.840999999999998,13.007000000000003,31.174999999999997,11.512000000000004,29.746999999999996,10.453000000000003C27.244999999999997,7.972000000000003,23.803999999999995,6.439000000000003,20.001999999999995,6.438000000000003C15.945999999999994,6.438000000000003,12.296999999999995,8.183000000000003,9.763999999999996,10.963000000000005C9.443999999999996,10.500000000000005,9.182999999999996,9.938000000000004,9.158999999999995,9.317000000000004C9.158999999999995,9.317000000000004,9.156999999999995,9.319000000000004,9.152999999999995,9.322000000000005C9.152999999999995,9.311000000000005,9.149999999999995,9.301000000000004,9.149999999999995,9.291000000000004C9.149999999999995,9.291000000000004,7.539999999999995,10.538000000000004,7.713999999999995,13.903000000000004C7.414999999999995,14.477000000000004,7.153999999999995,15.075000000000005,6.936999999999995,15.694000000000004C6.561999999999995,16.511000000000003,6.186999999999995,17.698000000000004,5.877999999999995,19.440000000000005C5.877999999999995,19.440000000000005,6.010999999999995,19.018000000000004,6.276999999999995,18.452000000000005C6.212999999999995,18.934000000000005,6.173999999999995,19.423000000000005,6.160999999999995,19.919000000000004C6.070999999999995,20.764000000000003,6.042999999999995,21.784000000000002,6.1219999999999954,23.007000000000005C6.1219999999999954,23.007000000000005,6.1539999999999955,22.601000000000006,6.257999999999996,21.986000000000004C7.091999999999995,28.840000000000003,12.924999999999995,34.151,20.000999999999998,34.151L20.000999999999998,34.151C21.860999999999997,34.151,23.636999999999997,33.781000000000006,25.256999999999998,33.115C28.938,31.771,31.116,29.196,32.4,26.469ZM20.002,7.356000000000002C22.448,7.356000000000002,24.732,8.036000000000001,26.682,9.216000000000001C24.407999999999998,8.688,23.249,8.955000000000002,23.259,8.968000000000002C23.272000000000002,8.983000000000002,26.643,9.557000000000002,27.240000000000002,10.379000000000001C27.240000000000002,10.379000000000001,25.809,10.379000000000001,24.384,10.789000000000001C24.319,10.808000000000002,29.626,11.452000000000002,30.711,16.755000000000003C30.711,16.755000000000003,30.128999999999998,15.542000000000002,29.41,15.335000000000003C29.883,16.774,29.761,19.505000000000003,29.31,20.863000000000003C29.252,21.037000000000003,29.192,20.108000000000004,28.305999999999997,19.708000000000002C28.589999999999996,21.745,28.287999999999997,24.976000000000003,26.874,25.866000000000003C26.764999999999997,25.936000000000003,27.761,22.677000000000003,27.075,23.936000000000003C22.982,30.212000000000003,18.116,26.475000000000005,16.141,25.144000000000002C17.726,25.532000000000004,19.407999999999998,25.252000000000002,20.383,24.585C21.365,23.913,21.947,23.423000000000002,22.47,23.538C22.991999999999997,23.655,23.34,23.131,22.933999999999997,22.666C22.528999999999996,22.2,21.541999999999998,21.561,20.208999999999996,21.909C19.268999999999995,22.156,18.101999999999997,23.195999999999998,16.322999999999997,22.142C14.804999999999996,21.243,14.815999999999997,20.512,14.815999999999997,20.047C14.815999999999997,19.681,15.072999999999997,19.167,15.549999999999997,19.019000000000002C16.129999999999995,19.081000000000003,16.593999999999998,19.233,17.086999999999996,19.485000000000003C17.091999999999995,19.35,17.092999999999996,19.17,17.085999999999995,18.966000000000005C17.124999999999996,18.889000000000003,17.100999999999996,18.655000000000005,17.038999999999994,18.370000000000005C17.002999999999993,18.083000000000006,16.941999999999993,17.788000000000004,16.848999999999993,17.519000000000005C16.858999999999995,17.517000000000007,16.865999999999993,17.512000000000004,16.869999999999994,17.498000000000005C16.945999999999994,17.154000000000003,19.016999999999992,15.954000000000004,19.168999999999993,15.839000000000004C19.321999999999992,15.725000000000003,19.718999999999994,15.461000000000004,19.674999999999994,14.656000000000004C19.659999999999993,14.391000000000004,19.616999999999994,14.362000000000004,17.442999999999994,14.370000000000005C16.525999999999993,14.373000000000005,16.017999999999994,13.476000000000004,15.853999999999994,13.125000000000004C16.075999999999993,11.894000000000004,16.716999999999995,11.015000000000004,17.772999999999993,10.421000000000003C17.792999999999992,10.410000000000004,17.787999999999993,10.400000000000002,17.764999999999993,10.394000000000004C17.983999999999995,10.267000000000003,15.240999999999993,10.388000000000003,14.004999999999994,11.998000000000005C13.673999999999994,12.045000000000005,13.218999999999994,11.950000000000005,12.709999999999994,11.950000000000005C12.071999999999994,11.950000000000005,11.570999999999994,12.020000000000005,11.106999999999994,12.137000000000004C11.056999999999993,12.150000000000004,10.984999999999994,12.148000000000003,10.898999999999994,12.136000000000005C10.768999999999993,12.040000000000004,10.574999999999994,11.880000000000004,10.364999999999993,11.672000000000004C10.525999999999993,11.492000000000004,10.688999999999993,11.316000000000004,10.859999999999992,11.146000000000004C13.200999999999993,8.804000000000004,16.429999999999993,7.357000000000005,20.001999999999992,7.356000000000004Z" style="stroke-width: 3px; stroke-linejoin: round; opacity: 0; " stroke-width="3" stroke-linejoin="round" opacity="0"></path><path fill="url(#r-3efa2ba3a4ae4d7c82c3862976f137f4)" stroke="none" d="M32.4,26.469C32.879,25.505000000000003,33.251,24.478,33.495,23.403000000000002C34.448,19.742,34.160999999999994,16.549000000000003,34.160999999999994,16.549000000000003L33.833999999999996,18.653000000000002C33.833999999999996,18.653000000000002,33.364999999999995,14.757000000000001,32.79,13.300000000000002C31.909,11.069000000000003,31.517,11.086000000000002,31.516,11.090000000000003C32.058,12.469000000000003,32.01,13.259000000000004,31.999,13.378000000000004C31.988999999999997,13.362000000000004,31.98,13.346000000000004,31.971999999999998,13.331000000000003C31.840999999999998,13.007000000000003,31.174999999999997,11.512000000000004,29.746999999999996,10.453000000000003C27.244999999999997,7.972000000000003,23.803999999999995,6.439000000000003,20.001999999999995,6.438000000000003C15.945999999999994,6.438000000000003,12.296999999999995,8.183000000000003,9.763999999999996,10.963000000000005C9.443999999999996,10.500000000000005,9.182999999999996,9.938000000000004,9.158999999999995,9.317000000000004C9.158999999999995,9.317000000000004,9.156999999999995,9.319000000000004,9.152999999999995,9.322000000000005C9.152999999999995,9.311000000000005,9.149999999999995,9.301000000000004,9.149999999999995,9.291000000000004C9.149999999999995,9.291000000000004,7.539999999999995,10.538000000000004,7.713999999999995,13.903000000000004C7.414999999999995,14.477000000000004,7.153999999999995,15.075000000000005,6.936999999999995,15.694000000000004C6.561999999999995,16.511000000000003,6.186999999999995,17.698000000000004,5.877999999999995,19.440000000000005C5.877999999999995,19.440000000000005,6.010999999999995,19.018000000000004,6.276999999999995,18.452000000000005C6.212999999999995,18.934000000000005,6.173999999999995,19.423000000000005,6.160999999999995,19.919000000000004C6.070999999999995,20.764000000000003,6.042999999999995,21.784000000000002,6.1219999999999954,23.007000000000005C6.1219999999999954,23.007000000000005,6.1539999999999955,22.601000000000006,6.257999999999996,21.986000000000004C7.091999999999995,28.840000000000003,12.924999999999995,34.151,20.000999999999998,34.151L20.000999999999998,34.151C21.860999999999997,34.151,23.636999999999997,33.781000000000006,25.256999999999998,33.115C28.938,31.771,31.116,29.196,32.4,26.469ZM20.002,7.356000000000002C22.448,7.356000000000002,24.732,8.036000000000001,26.682,9.216000000000001C24.407999999999998,8.688,23.249,8.955000000000002,23.259,8.968000000000002C23.272000000000002,8.983000000000002,26.643,9.557000000000002,27.240000000000002,10.379000000000001C27.240000000000002,10.379000000000001,25.809,10.379000000000001,24.384,10.789000000000001C24.319,10.808000000000002,29.626,11.452000000000002,30.711,16.755000000000003C30.711,16.755000000000003,30.128999999999998,15.542000000000002,29.41,15.335000000000003C29.883,16.774,29.761,19.505000000000003,29.31,20.863000000000003C29.252,21.037000000000003,29.192,20.108000000000004,28.305999999999997,19.708000000000002C28.589999999999996,21.745,28.287999999999997,24.976000000000003,26.874,25.866000000000003C26.764999999999997,25.936000000000003,27.761,22.677000000000003,27.075,23.936000000000003C22.982,30.212000000000003,18.116,26.475000000000005,16.141,25.144000000000002C17.726,25.532000000000004,19.407999999999998,25.252000000000002,20.383,24.585C21.365,23.913,21.947,23.423000000000002,22.47,23.538C22.991999999999997,23.655,23.34,23.131,22.933999999999997,22.666C22.528999999999996,22.2,21.541999999999998,21.561,20.208999999999996,21.909C19.268999999999995,22.156,18.101999999999997,23.195999999999998,16.322999999999997,22.142C14.804999999999996,21.243,14.815999999999997,20.512,14.815999999999997,20.047C14.815999999999997,19.681,15.072999999999997,19.167,15.549999999999997,19.019000000000002C16.129999999999995,19.081000000000003,16.593999999999998,19.233,17.086999999999996,19.485000000000003C17.091999999999995,19.35,17.092999999999996,19.17,17.085999999999995,18.966000000000005C17.124999999999996,18.889000000000003,17.100999999999996,18.655000000000005,17.038999999999994,18.370000000000005C17.002999999999993,18.083000000000006,16.941999999999993,17.788000000000004,16.848999999999993,17.519000000000005C16.858999999999995,17.517000000000007,16.865999999999993,17.512000000000004,16.869999999999994,17.498000000000005C16.945999999999994,17.154000000000003,19.016999999999992,15.954000000000004,19.168999999999993,15.839000000000004C19.321999999999992,15.725000000000003,19.718999999999994,15.461000000000004,19.674999999999994,14.656000000000004C19.659999999999993,14.391000000000004,19.616999999999994,14.362000000000004,17.442999999999994,14.370000000000005C16.525999999999993,14.373000000000005,16.017999999999994,13.476000000000004,15.853999999999994,13.125000000000004C16.075999999999993,11.894000000000004,16.716999999999995,11.015000000000004,17.772999999999993,10.421000000000003C17.792999999999992,10.410000000000004,17.787999999999993,10.400000000000002,17.764999999999993,10.394000000000004C17.983999999999995,10.267000000000003,15.240999999999993,10.388000000000003,14.004999999999994,11.998000000000005C13.673999999999994,12.045000000000005,13.218999999999994,11.950000000000005,12.709999999999994,11.950000000000005C12.071999999999994,11.950000000000005,11.570999999999994,12.020000000000005,11.106999999999994,12.137000000000004C11.056999999999993,12.150000000000004,10.984999999999994,12.148000000000003,10.898999999999994,12.136000000000005C10.768999999999993,12.040000000000004,10.574999999999994,11.880000000000004,10.364999999999993,11.672000000000004C10.525999999999993,11.492000000000004,10.688999999999993,11.316000000000004,10.859999999999992,11.146000000000004C13.200999999999993,8.804000000000004,16.429999999999993,7.357000000000005,20.001999999999992,7.356000000000004Z" opacity="1" fill-opacity="1" style="opacity: 1; fill-opacity: 1; "></path><rect x="0" y="0" width="32" height="32" r="0" rx="0" ry="0" fill="#000000" stroke="#000" style="opacity: 0; " opacity="0"></rect></svg>