<svg xmlns="http://www.w3.org/2000/svg" version="1.1"><desc>Created with Raphaël</desc><defs><linearGradient id="r-aaf33678248947f9899b796b9b2e4620" x1="0" y1="1" x2="6.123233995736766e-17" y2="0"><stop offset="0%" stop-color="#0050af"></stop><stop offset="100%" stop-color="#002c62"></stop></linearGradient></defs><path fill="none" stroke="#ffffff" d="M25.77,12.895C23.391,12.895,21.291,14.068999999999999,20,15.863999999999999C18.711,14.068999999999999,16.61,12.895,14.23,12.895C10.306000000000001,12.895,7.125,16.076,7.125,20C7.125,23.924,10.306000000000001,27.105,14.23,27.105C16.609,27.105,18.71,25.93,20,24.135C21.29,25.93,23.391,27.105,25.77,27.105C29.695,27.105,32.875,23.923000000000002,32.875,20C32.875,16.075,29.694,12.895,25.77,12.895ZM25.769,25.822C22.558,25.822,19.948,23.212,19.948,20.000999999999998C19.948,16.787999999999997,22.558,14.176999999999998,25.769,14.176999999999998C28.982,14.176999999999998,31.592999999999996,16.787999999999997,31.592999999999996,20.000999999999998C31.592999999999996,23.211999999999996,28.980999999999995,25.821999999999996,25.769,25.821999999999996Z" style="stroke-width: 3px; stroke-linejoin: round; opacity: 0; " stroke-width="3" stroke-linejoin="round" opacity="0"></path><path fill="url(#r-aaf33678248947f9899b796b9b2e4620)" stroke="none" d="M25.77,12.895C23.391,12.895,21.291,14.068999999999999,20,15.863999999999999C18.711,14.068999999999999,16.61,12.895,14.23,12.895C10.306000000000001,12.895,7.125,16.076,7.125,20C7.125,23.924,10.306000000000001,27.105,14.23,27.105C16.609,27.105,18.71,25.93,20,24.135C21.29,25.93,23.391,27.105,25.77,27.105C29.695,27.105,32.875,23.923000000000002,32.875,20C32.875,16.075,29.694,12.895,25.77,12.895ZM25.769,25.822C22.558,25.822,19.948,23.212,19.948,20.000999999999998C19.948,16.787999999999997,22.558,14.176999999999998,25.769,14.176999999999998C28.982,14.176999999999998,31.592999999999996,16.787999999999997,31.592999999999996,20.000999999999998C31.592999999999996,23.211999999999996,28.980999999999995,25.821999999999996,25.769,25.821999999999996Z" opacity="1" fill-opacity="1" style="opacity: 1; fill-opacity: 1; "></path><rect x="0" y="0" width="32" height="32" r="0" rx="0" ry="0" fill="#000000" stroke="#000" style="opacity: 0; " opacity="0"></rect></svg>