<svg xmlns="http://www.w3.org/2000/svg" version="1.1" width="100%" height="100%" viewBox="0 0 35 35"><desc>Created with Raphaël</desc><defs><linearGradient id="r-4ee39a1a089b485c944f341039e432de" x1="0" y1="1" x2="6.123233995736766e-17" y2="0"><stop offset="0%" stop-color="#0050af"></stop><stop offset="100%" stop-color="#002c62"></stop></linearGradient></defs><path fill="none" stroke="#ffffff" d="M32.436,19.099C31.235,18.897,29.985,18.764,28.97,18.728L28.791,18.722C28.832,18.632,28.863,18.571,28.873,18.562C28.895,18.544,28.913,18.468,28.915000000000003,18.394000000000002C28.915000000000003,18.353,28.933000000000003,18.220000000000002,28.961000000000002,18.044C29.236,18.054000000000002,29.601000000000003,18.062,29.999000000000002,18.065C31.536,18.077,33.144000000000005,18.201,34.247,18.396C34.903999999999996,18.512,35.121,18.508,34.636,18.39C34.145,18.271,32.689,18.096,31.529000000000003,18.02C30.750000000000004,17.967,29.633000000000003,17.947,28.975000000000005,17.958C28.994000000000003,17.843999999999998,29.016000000000005,17.717,29.039000000000005,17.587C29.132000000000005,17.084,29.163000000000004,16.578,29.165000000000006,15.571C29.167000000000005,14.009,29.083000000000006,13.579,28.574000000000005,12.546C28.367000000000004,12.123999999999999,28.133000000000006,11.766,27.850000000000005,11.442C28.097000000000005,10.713000000000001,28.091000000000005,9.584,27.835000000000004,8.594000000000001C27.624000000000006,7.782000000000001,27.550000000000004,7.730000000000001,26.814000000000004,7.886000000000001C26.190000000000005,8.019000000000002,25.690000000000005,8.200000000000001,25.049000000000003,8.523000000000001C24.746000000000002,8.676000000000002,24.328000000000003,8.914000000000001,24.025000000000002,9.101C23.235000000000003,8.823,22.418000000000003,8.639000000000001,21.546000000000003,8.540000000000001C20.662000000000003,8.440000000000001,18.495000000000005,8.496,17.726000000000003,8.638000000000002C16.974000000000004,8.777000000000001,16.297000000000004,8.947000000000001,15.684000000000003,9.149000000000001C15.378000000000004,8.96,14.934000000000003,8.705,14.617000000000003,8.545000000000002C13.973000000000003,8.221000000000002,13.473000000000003,8.041000000000002,12.847000000000003,7.908000000000001C12.113000000000003,7.751000000000001,12.037000000000003,7.804000000000001,11.827000000000004,8.616000000000001C11.567000000000004,9.619000000000002,11.565000000000003,10.767000000000001,11.822000000000003,11.494000000000002C11.852000000000002,11.577000000000002,11.870000000000003,11.636000000000001,11.877000000000002,11.682000000000002C10.835000000000003,12.994000000000002,10.495000000000003,14.462000000000002,10.721000000000002,16.511000000000003C10.780000000000001,17.045,10.871000000000002,17.535000000000004,10.998000000000001,17.984C10.333000000000002,17.98,9.387,18.004,8.704,18.048000000000002C7.542000000000001,18.125000000000004,6.086,18.298000000000002,5.595000000000001,18.417C5.111000000000001,18.535,5.3260000000000005,18.539,5.984000000000001,18.424000000000003C7.087000000000001,18.230000000000004,8.696000000000002,18.104000000000003,10.232000000000001,18.093000000000004C10.522,18.092000000000002,10.793000000000001,18.086000000000002,11.026000000000002,18.080000000000002C11.096000000000002,18.317,11.176000000000002,18.543000000000003,11.267000000000001,18.758000000000003L11.260000000000002,18.759000000000004C10.245000000000001,18.794000000000004,8.996000000000002,18.927000000000003,7.795000000000002,19.129000000000005C6.894000000000002,19.280000000000005,5.564000000000002,19.582000000000004,5.409000000000002,19.669000000000004C5.246000000000001,19.760000000000005,5.379000000000001,19.740000000000006,6.077000000000002,19.563000000000002C7.350000000000001,19.241000000000003,9.005000000000003,18.994000000000003,11.055000000000001,18.822000000000003L11.284,18.802000000000003C11.724,19.824,12.402000000000001,20.604000000000003,13.360000000000001,21.212000000000003C13.946000000000002,21.585000000000004,14.885000000000002,21.968000000000004,15.358,22.028000000000002C15.488000000000001,22.044,15.866,22.122000000000003,16.198,22.200000000000003C16.531,22.278000000000002,17.182000000000002,22.395000000000003,17.644000000000002,22.462000000000003H17.655C17.646,22.468000000000004,17.638,22.472000000000005,17.630000000000003,22.478C17.070000000000004,22.769000000000002,16.706000000000003,23.222,16.461000000000002,23.935000000000002C16.351000000000003,23.968000000000004,16.214000000000002,24.013,16.066000000000003,24.064000000000004C15.537000000000003,24.244000000000003,15.331000000000003,24.281000000000002,14.795000000000002,24.285000000000004C14.239,24.289000000000005,14.107000000000001,24.265000000000004,13.775000000000002,24.109000000000005C13.292000000000002,23.884000000000004,12.842000000000002,23.470000000000006,12.542000000000002,22.976000000000006C12.041000000000002,22.150000000000006,11.175,21.566000000000006,10.453000000000001,21.566000000000006C9.836000000000002,21.566000000000006,9.719000000000001,21.816000000000006,10.165000000000001,22.181000000000004C10.837000000000002,22.730000000000004,11.339,23.290000000000006,11.545000000000002,23.718000000000004C11.661000000000001,23.958000000000002,11.839000000000002,24.329000000000004,11.942000000000002,24.542000000000005C12.051000000000002,24.769000000000005,12.284000000000002,25.077000000000005,12.506000000000002,25.290000000000006C13.028000000000002,25.788000000000007,13.532000000000002,26.026000000000007,14.284000000000002,26.138000000000005C14.788000000000002,26.212000000000007,14.912000000000003,26.212000000000007,15.507000000000003,26.136000000000006C15.794000000000004,26.101000000000006,16.036000000000005,26.060000000000006,16.253000000000004,26.009000000000007C16.253000000000004,26.253000000000007,16.253000000000004,26.534000000000006,16.253000000000004,26.864000000000008C16.253000000000004,28.63000000000001,16.232000000000003,29.198000000000008,16.162000000000003,29.364000000000008C16.03,29.680000000000007,15.734000000000002,30.00500000000001,15.446000000000003,30.151000000000007C15.159000000000002,30.297000000000008,15.070000000000004,30.458000000000006,15.191000000000003,30.606000000000005C15.258000000000003,30.686000000000003,15.387000000000002,30.700000000000006,15.820000000000002,30.672000000000004C16.642000000000003,30.621000000000006,17.223000000000003,30.317000000000004,17.519000000000002,29.781000000000006C17.614,29.609000000000005,17.636000000000003,29.263000000000005,17.666,27.463000000000005C17.698,25.510000000000005,17.712,25.322000000000003,17.839,25.043000000000006C17.916,24.877000000000006,18.026999999999997,24.697000000000006,18.089,24.648000000000007C18.192999999999998,24.56200000000001,18.2,24.732000000000006,18.2,27.068000000000005C18.198999999999998,29.646000000000004,18.173,29.957000000000004,17.915,30.453000000000003C17.857,30.566000000000003,17.747,30.713000000000005,17.669999999999998,30.783C17.534999999999997,30.906000000000002,17.477999999999998,31.221,17.572,31.316000000000003C17.727,31.470000000000002,18.503999999999998,31.228,18.928,30.894000000000002C19.650000000000002,30.322000000000003,19.736,29.849000000000004,19.742,26.433L19.745,24.429L19.964000000000002,24.45L20.183000000000003,24.47L20.219000000000005,27.090999999999998C20.260000000000005,30.041999999999998,20.266000000000005,30.084999999999997,20.768000000000004,30.654999999999998C21.053000000000004,30.976999999999997,21.340000000000003,31.154999999999998,21.807000000000006,31.293999999999997C22.432000000000006,31.481999999999996,22.620000000000005,31.191999999999997,22.200000000000006,30.688999999999997C21.743000000000006,30.141999999999996,21.721000000000007,29.932999999999996,21.746000000000006,26.694999999999997C21.763000000000005,24.618999999999996,21.763000000000005,24.618999999999996,21.897000000000006,24.739999999999995C22.179000000000006,24.995999999999995,22.233000000000004,25.415999999999993,22.233000000000004,27.362999999999996C22.233000000000004,29.780999999999995,22.302000000000003,30.010999999999996,23.156000000000006,30.432999999999996C23.555000000000007,30.627999999999997,23.667000000000005,30.651999999999997,24.178000000000004,30.653999999999996C24.722000000000005,30.655999999999995,24.755000000000003,30.647999999999996,24.775000000000006,30.505999999999997C24.792000000000005,30.391,24.725000000000005,30.312999999999995,24.471000000000007,30.157999999999998C24.13800000000001,29.953,23.907000000000007,29.691,23.762000000000008,29.360999999999997C23.707000000000008,29.233999999999998,23.67000000000001,28.401999999999997,23.645000000000007,26.688999999999997C23.609000000000005,24.295999999999996,23.601000000000006,24.186999999999998,23.452000000000005,23.811999999999998C23.251000000000005,23.307999999999996,22.944000000000006,22.909999999999997,22.555000000000007,22.645999999999997C22.454000000000008,22.58,22.353000000000005,22.525,22.22200000000001,22.483999999999998C22.38300000000001,22.468,22.53900000000001,22.450999999999997,22.69000000000001,22.429C24.262000000000008,22.22,25.093000000000007,22.046,25.76000000000001,21.787999999999997C27.17100000000001,21.244999999999997,28.125000000000007,20.342999999999996,28.64200000000001,19.063999999999997C28.68800000000001,18.949999999999996,28.73400000000001,18.841999999999995,28.77300000000001,18.754999999999995L29.17100000000001,18.787999999999997C31.22200000000001,18.960999999999995,32.87700000000001,19.208,34.15000000000001,19.530999999999995C34.84800000000001,19.707999999999995,34.981000000000016,19.728999999999996,34.81800000000001,19.635999999999996C34.66600000000001,19.550999999999995,33.33600000000001,19.249999999999996,32.436000000000014,19.098999999999997ZM26.422,19.068C26.189,19.580000000000002,25.539,20.238,25.014,20.496000000000002C24.496,20.752000000000002,23.683999999999997,20.947000000000003,22.764,21.040000000000003C22.134999999999998,21.104000000000003,18.627,21.123,18.048,21.066000000000003C16.130999999999997,20.878000000000004,15.056999999999999,20.509000000000004,14.264999999999999,19.770000000000003C13.514999999999999,19.068000000000005,13.165,18.115000000000002,13.225999999999999,16.942000000000004C13.264999999999999,16.208000000000006,13.441999999999998,15.747000000000003,13.905,15.187000000000005C14.325999999999999,14.677000000000005,14.769,14.362000000000005,15.290999999999999,14.202000000000005C15.727999999999998,14.068000000000005,17.069,14.056000000000004,18.872,14.172000000000006C19.669,14.223000000000006,20.328,14.223000000000006,21.124,14.172000000000006C23.009999999999998,14.053000000000006,24.269,14.066000000000006,24.733999999999998,14.210000000000006C25.465,14.436000000000007,26.130999999999997,15.044000000000006,26.531,15.854000000000006C26.711,16.216000000000005,26.746,16.370000000000005,26.772,16.929000000000006C26.808,17.699000000000005,26.674999999999997,18.517000000000007,26.421999999999997,19.068000000000005ZM16.912,15.762C15.838999999999999,15.574,15.225999999999999,17.411,16.049,18.349C16.439999999999998,18.794,16.787,18.867,17.221,18.597C17.623,18.346,17.841,17.877000000000002,17.841,17.269000000000002C17.841,16.458000000000002,17.472,15.862000000000002,16.912000000000003,15.762000000000002ZM23.424999999999997,15.872C22.351999999999997,15.684,21.737999999999996,17.519,22.560999999999996,18.458C22.952999999999996,18.903,23.298999999999996,18.976999999999997,23.733999999999995,18.705C24.134999999999994,18.455,24.353999999999996,17.985,24.353999999999996,17.377C24.353999999999996,16.569,23.984999999999996,15.970999999999998,23.424999999999997,15.872ZM20.538999999999998,19.484C20.516,19.558000000000003,20.403999999999996,19.668000000000003,20.290999999999997,19.727C20.004999999999995,19.874,19.798999999999996,19.823,19.496999999999996,19.548000000000002C19.309999999999995,19.379,19.224999999999998,19.290000000000003,19.167999999999996,19.467000000000002C19.114999999999995,19.631000000000004,19.447999999999997,19.96,19.704999999999995,20.061000000000003C19.940999999999995,20.155000000000005,20.109999999999996,20.158000000000005,20.365999999999996,20.051000000000002C20.619999999999997,19.945,20.841999999999995,19.660000000000004,20.841999999999995,19.475C20.841999999999995,19.303,20.594999999999995,19.311,20.538999999999994,19.484ZM20.221999999999998,18.909000000000002C20.384999999999998,18.765000000000004,20.421999999999997,18.469,20.266,18.312S19.793,18.179000000000002,19.668999999999997,18.355C19.525,18.561,19.601999999999997,18.718,19.705,18.885C19.865,19.009,20.08,19.034000000000002,20.221999999999998,18.909000000000002Z" style="stroke-width: 3px; stroke-linejoin: round; opacity: 0; " stroke-width="3" stroke-linejoin="round" opacity="0"></path><path fill="url(#r-4ee39a1a089b485c944f341039e432de)" stroke="none" d="M32.436,19.099C31.235,18.897,29.985,18.764,28.97,18.728L28.791,18.722C28.832,18.632,28.863,18.571,28.873,18.562C28.895,18.544,28.913,18.468,28.915000000000003,18.394000000000002C28.915000000000003,18.353,28.933000000000003,18.220000000000002,28.961000000000002,18.044C29.236,18.054000000000002,29.601000000000003,18.062,29.999000000000002,18.065C31.536,18.077,33.144000000000005,18.201,34.247,18.396C34.903999999999996,18.512,35.121,18.508,34.636,18.39C34.145,18.271,32.689,18.096,31.529000000000003,18.02C30.750000000000004,17.967,29.633000000000003,17.947,28.975000000000005,17.958C28.994000000000003,17.843999999999998,29.016000000000005,17.717,29.039000000000005,17.587C29.132000000000005,17.084,29.163000000000004,16.578,29.165000000000006,15.571C29.167000000000005,14.009,29.083000000000006,13.579,28.574000000000005,12.546C28.367000000000004,12.123999999999999,28.133000000000006,11.766,27.850000000000005,11.442C28.097000000000005,10.713000000000001,28.091000000000005,9.584,27.835000000000004,8.594000000000001C27.624000000000006,7.782000000000001,27.550000000000004,7.730000000000001,26.814000000000004,7.886000000000001C26.190000000000005,8.019000000000002,25.690000000000005,8.200000000000001,25.049000000000003,8.523000000000001C24.746000000000002,8.676000000000002,24.328000000000003,8.914000000000001,24.025000000000002,9.101C23.235000000000003,8.823,22.418000000000003,8.639000000000001,21.546000000000003,8.540000000000001C20.662000000000003,8.440000000000001,18.495000000000005,8.496,17.726000000000003,8.638000000000002C16.974000000000004,8.777000000000001,16.297000000000004,8.947000000000001,15.684000000000003,9.149000000000001C15.378000000000004,8.96,14.934000000000003,8.705,14.617000000000003,8.545000000000002C13.973000000000003,8.221000000000002,13.473000000000003,8.041000000000002,12.847000000000003,7.908000000000001C12.113000000000003,7.751000000000001,12.037000000000003,7.804000000000001,11.827000000000004,8.616000000000001C11.567000000000004,9.619000000000002,11.565000000000003,10.767000000000001,11.822000000000003,11.494000000000002C11.852000000000002,11.577000000000002,11.870000000000003,11.636000000000001,11.877000000000002,11.682000000000002C10.835000000000003,12.994000000000002,10.495000000000003,14.462000000000002,10.721000000000002,16.511000000000003C10.780000000000001,17.045,10.871000000000002,17.535000000000004,10.998000000000001,17.984C10.333000000000002,17.98,9.387,18.004,8.704,18.048000000000002C7.542000000000001,18.125000000000004,6.086,18.298000000000002,5.595000000000001,18.417C5.111000000000001,18.535,5.3260000000000005,18.539,5.984000000000001,18.424000000000003C7.087000000000001,18.230000000000004,8.696000000000002,18.104000000000003,10.232000000000001,18.093000000000004C10.522,18.092000000000002,10.793000000000001,18.086000000000002,11.026000000000002,18.080000000000002C11.096000000000002,18.317,11.176000000000002,18.543000000000003,11.267000000000001,18.758000000000003L11.260000000000002,18.759000000000004C10.245000000000001,18.794000000000004,8.996000000000002,18.927000000000003,7.795000000000002,19.129000000000005C6.894000000000002,19.280000000000005,5.564000000000002,19.582000000000004,5.409000000000002,19.669000000000004C5.246000000000001,19.760000000000005,5.379000000000001,19.740000000000006,6.077000000000002,19.563000000000002C7.350000000000001,19.241000000000003,9.005000000000003,18.994000000000003,11.055000000000001,18.822000000000003L11.284,18.802000000000003C11.724,19.824,12.402000000000001,20.604000000000003,13.360000000000001,21.212000000000003C13.946000000000002,21.585000000000004,14.885000000000002,21.968000000000004,15.358,22.028000000000002C15.488000000000001,22.044,15.866,22.122000000000003,16.198,22.200000000000003C16.531,22.278000000000002,17.182000000000002,22.395000000000003,17.644000000000002,22.462000000000003H17.655C17.646,22.468000000000004,17.638,22.472000000000005,17.630000000000003,22.478C17.070000000000004,22.769000000000002,16.706000000000003,23.222,16.461000000000002,23.935000000000002C16.351000000000003,23.968000000000004,16.214000000000002,24.013,16.066000000000003,24.064000000000004C15.537000000000003,24.244000000000003,15.331000000000003,24.281000000000002,14.795000000000002,24.285000000000004C14.239,24.289000000000005,14.107000000000001,24.265000000000004,13.775000000000002,24.109000000000005C13.292000000000002,23.884000000000004,12.842000000000002,23.470000000000006,12.542000000000002,22.976000000000006C12.041000000000002,22.150000000000006,11.175,21.566000000000006,10.453000000000001,21.566000000000006C9.836000000000002,21.566000000000006,9.719000000000001,21.816000000000006,10.165000000000001,22.181000000000004C10.837000000000002,22.730000000000004,11.339,23.290000000000006,11.545000000000002,23.718000000000004C11.661000000000001,23.958000000000002,11.839000000000002,24.329000000000004,11.942000000000002,24.542000000000005C12.051000000000002,24.769000000000005,12.284000000000002,25.077000000000005,12.506000000000002,25.290000000000006C13.028000000000002,25.788000000000007,13.532000000000002,26.026000000000007,14.284000000000002,26.138000000000005C14.788000000000002,26.212000000000007,14.912000000000003,26.212000000000007,15.507000000000003,26.136000000000006C15.794000000000004,26.101000000000006,16.036000000000005,26.060000000000006,16.253000000000004,26.009000000000007C16.253000000000004,26.253000000000007,16.253000000000004,26.534000000000006,16.253000000000004,26.864000000000008C16.253000000000004,28.63000000000001,16.232000000000003,29.198000000000008,16.162000000000003,29.364000000000008C16.03,29.680000000000007,15.734000000000002,30.00500000000001,15.446000000000003,30.151000000000007C15.159000000000002,30.297000000000008,15.070000000000004,30.458000000000006,15.191000000000003,30.606000000000005C15.258000000000003,30.686000000000003,15.387000000000002,30.700000000000006,15.820000000000002,30.672000000000004C16.642000000000003,30.621000000000006,17.223000000000003,30.317000000000004,17.519000000000002,29.781000000000006C17.614,29.609000000000005,17.636000000000003,29.263000000000005,17.666,27.463000000000005C17.698,25.510000000000005,17.712,25.322000000000003,17.839,25.043000000000006C17.916,24.877000000000006,18.026999999999997,24.697000000000006,18.089,24.648000000000007C18.192999999999998,24.56200000000001,18.2,24.732000000000006,18.2,27.068000000000005C18.198999999999998,29.646000000000004,18.173,29.957000000000004,17.915,30.453000000000003C17.857,30.566000000000003,17.747,30.713000000000005,17.669999999999998,30.783C17.534999999999997,30.906000000000002,17.477999999999998,31.221,17.572,31.316000000000003C17.727,31.470000000000002,18.503999999999998,31.228,18.928,30.894000000000002C19.650000000000002,30.322000000000003,19.736,29.849000000000004,19.742,26.433L19.745,24.429L19.964000000000002,24.45L20.183000000000003,24.47L20.219000000000005,27.090999999999998C20.260000000000005,30.041999999999998,20.266000000000005,30.084999999999997,20.768000000000004,30.654999999999998C21.053000000000004,30.976999999999997,21.340000000000003,31.154999999999998,21.807000000000006,31.293999999999997C22.432000000000006,31.481999999999996,22.620000000000005,31.191999999999997,22.200000000000006,30.688999999999997C21.743000000000006,30.141999999999996,21.721000000000007,29.932999999999996,21.746000000000006,26.694999999999997C21.763000000000005,24.618999999999996,21.763000000000005,24.618999999999996,21.897000000000006,24.739999999999995C22.179000000000006,24.995999999999995,22.233000000000004,25.415999999999993,22.233000000000004,27.362999999999996C22.233000000000004,29.780999999999995,22.302000000000003,30.010999999999996,23.156000000000006,30.432999999999996C23.555000000000007,30.627999999999997,23.667000000000005,30.651999999999997,24.178000000000004,30.653999999999996C24.722000000000005,30.655999999999995,24.755000000000003,30.647999999999996,24.775000000000006,30.505999999999997C24.792000000000005,30.391,24.725000000000005,30.312999999999995,24.471000000000007,30.157999999999998C24.13800000000001,29.953,23.907000000000007,29.691,23.762000000000008,29.360999999999997C23.707000000000008,29.233999999999998,23.67000000000001,28.401999999999997,23.645000000000007,26.688999999999997C23.609000000000005,24.295999999999996,23.601000000000006,24.186999999999998,23.452000000000005,23.811999999999998C23.251000000000005,23.307999999999996,22.944000000000006,22.909999999999997,22.555000000000007,22.645999999999997C22.454000000000008,22.58,22.353000000000005,22.525,22.22200000000001,22.483999999999998C22.38300000000001,22.468,22.53900000000001,22.450999999999997,22.69000000000001,22.429C24.262000000000008,22.22,25.093000000000007,22.046,25.76000000000001,21.787999999999997C27.17100000000001,21.244999999999997,28.125000000000007,20.342999999999996,28.64200000000001,19.063999999999997C28.68800000000001,18.949999999999996,28.73400000000001,18.841999999999995,28.77300000000001,18.754999999999995L29.17100000000001,18.787999999999997C31.22200000000001,18.960999999999995,32.87700000000001,19.208,34.15000000000001,19.530999999999995C34.84800000000001,19.707999999999995,34.981000000000016,19.728999999999996,34.81800000000001,19.635999999999996C34.66600000000001,19.550999999999995,33.33600000000001,19.249999999999996,32.436000000000014,19.098999999999997ZM26.422,19.068C26.189,19.580000000000002,25.539,20.238,25.014,20.496000000000002C24.496,20.752000000000002,23.683999999999997,20.947000000000003,22.764,21.040000000000003C22.134999999999998,21.104000000000003,18.627,21.123,18.048,21.066000000000003C16.130999999999997,20.878000000000004,15.056999999999999,20.509000000000004,14.264999999999999,19.770000000000003C13.514999999999999,19.068000000000005,13.165,18.115000000000002,13.225999999999999,16.942000000000004C13.264999999999999,16.208000000000006,13.441999999999998,15.747000000000003,13.905,15.187000000000005C14.325999999999999,14.677000000000005,14.769,14.362000000000005,15.290999999999999,14.202000000000005C15.727999999999998,14.068000000000005,17.069,14.056000000000004,18.872,14.172000000000006C19.669,14.223000000000006,20.328,14.223000000000006,21.124,14.172000000000006C23.009999999999998,14.053000000000006,24.269,14.066000000000006,24.733999999999998,14.210000000000006C25.465,14.436000000000007,26.130999999999997,15.044000000000006,26.531,15.854000000000006C26.711,16.216000000000005,26.746,16.370000000000005,26.772,16.929000000000006C26.808,17.699000000000005,26.674999999999997,18.517000000000007,26.421999999999997,19.068000000000005ZM16.912,15.762C15.838999999999999,15.574,15.225999999999999,17.411,16.049,18.349C16.439999999999998,18.794,16.787,18.867,17.221,18.597C17.623,18.346,17.841,17.877000000000002,17.841,17.269000000000002C17.841,16.458000000000002,17.472,15.862000000000002,16.912000000000003,15.762000000000002ZM23.424999999999997,15.872C22.351999999999997,15.684,21.737999999999996,17.519,22.560999999999996,18.458C22.952999999999996,18.903,23.298999999999996,18.976999999999997,23.733999999999995,18.705C24.134999999999994,18.455,24.353999999999996,17.985,24.353999999999996,17.377C24.353999999999996,16.569,23.984999999999996,15.970999999999998,23.424999999999997,15.872ZM20.538999999999998,19.484C20.516,19.558000000000003,20.403999999999996,19.668000000000003,20.290999999999997,19.727C20.004999999999995,19.874,19.798999999999996,19.823,19.496999999999996,19.548000000000002C19.309999999999995,19.379,19.224999999999998,19.290000000000003,19.167999999999996,19.467000000000002C19.114999999999995,19.631000000000004,19.447999999999997,19.96,19.704999999999995,20.061000000000003C19.940999999999995,20.155000000000005,20.109999999999996,20.158000000000005,20.365999999999996,20.051000000000002C20.619999999999997,19.945,20.841999999999995,19.660000000000004,20.841999999999995,19.475C20.841999999999995,19.303,20.594999999999995,19.311,20.538999999999994,19.484ZM20.221999999999998,18.909000000000002C20.384999999999998,18.765000000000004,20.421999999999997,18.469,20.266,18.312S19.793,18.179000000000002,19.668999999999997,18.355C19.525,18.561,19.601999999999997,18.718,19.705,18.885C19.865,19.009,20.08,19.034000000000002,20.221999999999998,18.909000000000002Z" opacity="1" fill-opacity="1" style="opacity: 1; fill-opacity: 1; "></path><rect x="0" y="0" width="32" height="32" r="0" rx="0" ry="0" fill="#000000" stroke="#000" style="opacity: 0; " opacity="0"></rect></svg>