<svg xmlns="http://www.w3.org/2000/svg" version="1.1" width="100%" height="100%" viewBox="0 0 35 35"><desc>Created with Raphaël</desc><defs><linearGradient id="r-4cb8e62eeab64985add8737586f182e5" x1="0" y1="1" x2="6.123233995736766e-17" y2="0"><stop offset="0%" stop-color="#0050af"></stop><stop offset="100%" stop-color="#002c62"></stop></linearGradient></defs><path fill="none" stroke="#ffffff" d="M26.335,16.833V13.998999999999999H26.334C26.333,10.500999999999998,23.498,7.665999999999999,20,7.665999999999999S13.666,10.501999999999999,13.666,13.999999999999998H13.666V16.833H11.375V29H28.625V16.833H26.335ZM15.667000000000002,13.999999999999998C15.667000000000002,13.999999999999998,15.667000000000002,13.999999999999998,15.667000000000002,13.999999999999998C15.667000000000002,11.609999999999998,17.611,9.665999999999999,20,9.665999999999999C22.391,9.665999999999999,24.335,11.61,24.335,13.998999999999999C24.335,13.998999999999999,24.335,13.998999999999999,24.335,13.998999999999999V16.833H15.667000000000002V13.999999999999998Z" style="stroke-width: 3px; stroke-linejoin: round; opacity: 0; " stroke-width="3" stroke-linejoin="round" opacity="0"></path><path fill="url(#r-4cb8e62eeab64985add8737586f182e5)" stroke="none" d="M26.335,16.833V13.998999999999999H26.334C26.333,10.500999999999998,23.498,7.665999999999999,20,7.665999999999999S13.666,10.501999999999999,13.666,13.999999999999998H13.666V16.833H11.375V29H28.625V16.833H26.335ZM15.667000000000002,13.999999999999998C15.667000000000002,13.999999999999998,15.667000000000002,13.999999999999998,15.667000000000002,13.999999999999998C15.667000000000002,11.609999999999998,17.611,9.665999999999999,20,9.665999999999999C22.391,9.665999999999999,24.335,11.61,24.335,13.998999999999999C24.335,13.998999999999999,24.335,13.998999999999999,24.335,13.998999999999999V16.833H15.667000000000002V13.999999999999998Z" opacity="1" fill-opacity="1" style="opacity: 1; fill-opacity: 1; "></path><rect x="0" y="0" width="32" height="32" r="0" rx="0" ry="0" fill="#000000" stroke="#000" style="opacity: 0; " opacity="0"></rect></svg>