<svg xmlns="http://www.w3.org/2000/svg" version="1.1" width="100%" height="100%" viewBox="0 0 35 35"><desc>Created with Raphaël</desc><defs><linearGradient id="r-f61f4b14d27c4b7c853c00b1e049e95e" x1="0" y1="1" x2="6.123233995736766e-17" y2="0"><stop offset="0%" stop-color="#0050af"></stop><stop offset="100%" stop-color="#002c62"></stop></linearGradient><linearGradient id="r-6864faf1fb34470899cdd2d69cd82238" x1="0" y1="1" x2="6.123233995736766e-17" y2="0"><stop offset="0%" stop-color="#0050af"></stop><stop offset="100%" stop-color="#002c62"></stop></linearGradient></defs><path fill="none" stroke="#ffffff" d="M20.154,9.135C19.65,9.135,19.154,9.166,18.666,9.224L18.63,9.044C18.608999999999998,8.940000000000001,18.57,8.846,18.518,8.761000000000001C18.899,8.453000000000001,19.143,7.9830000000000005,19.143,7.455000000000001C19.143,6.5280000000000005,18.392,5.777000000000001,17.465,5.777000000000001S15.786999999999999,6.528000000000001,15.786999999999999,7.455000000000001C15.786999999999999,8.200000000000001,16.272,8.831000000000001,16.944,9.05C16.923,9.155000000000001,16.923,9.266,16.944,9.378L16.977,9.545C11.645,10.95,7.712,15.804,7.712,21.578C7.712,28.448999999999998,13.283,34.019,20.154,34.019C27.025,34.019,32.595,28.448999999999998,32.595,21.577999999999996C32.596,14.705999999999996,27.025,9.134999999999996,20.153999999999996,9.134999999999996ZM20.369,12.1C24.823999999999998,12.1,28.552,15.216,29.491999999999997,19.387L28.915999999999997,19.621000000000002C28.767999999999997,18.94,28.160999999999998,18.430000000000003,27.435999999999996,18.430000000000003C26.598999999999997,18.430000000000003,25.919999999999995,19.109,25.919999999999995,19.946000000000005C25.919999999999995,20.021000000000004,25.927999999999994,20.094000000000005,25.937999999999995,20.167000000000005L23.166999999999994,20.139000000000006C23.112999999999996,20.024000000000008,23.052999999999994,19.913000000000007,22.984999999999996,19.806000000000008L26.383999999999997,14.696000000000009L26.438999999999997,14.613000000000008L21.672999999999995,18.672000000000008C21.320999999999994,18.515000000000008,20.932999999999996,18.424000000000007,20.524999999999995,18.416000000000007L20.610999999999994,18.398000000000007L19.433999999999994,15.813000000000006C20.073999999999995,15.636000000000006,20.544999999999995,15.050000000000006,20.544999999999995,14.354000000000006C20.544999999999995,13.517000000000007,19.866999999999994,12.839000000000006,19.028999999999996,12.839000000000006C18.953999999999997,12.839000000000006,18.881999999999998,12.846000000000005,18.809999999999995,12.857000000000006L18.867999999999995,12.223000000000006C19.356999999999996,12.141000000000005,19.857999999999993,12.100000000000007,20.368999999999996,12.100000000000007ZM16.146,7.455C16.146,6.728,16.737000000000002,6.1370000000000005,17.464000000000002,6.1370000000000005C18.191000000000003,6.1370000000000005,18.782000000000004,6.728000000000001,18.782000000000004,7.455C18.782000000000004,7.88,18.579000000000004,8.257,18.266000000000005,8.498C18.083000000000006,8.375,17.853000000000005,8.322,17.619000000000007,8.367999999999999C17.393000000000008,8.412999999999998,17.206000000000007,8.541999999999998,17.084000000000007,8.716999999999999C16.542000000000005,8.552999999999999,16.146000000000008,8.049,16.146000000000008,7.454999999999998ZM11.017000000000001,21.451999999999998C11.017000000000001,17.009,14.115000000000002,13.288999999999998,18.269000000000002,12.335999999999999L18.566000000000003,12.908999999999999C17.956000000000003,13.104999999999999,17.515000000000004,13.677,17.515000000000004,14.350999999999999C17.515000000000004,15.187999999999999,18.193000000000005,15.866999999999999,19.030000000000005,15.866999999999999C19.098000000000006,15.866999999999999,19.165000000000006,15.860999999999999,19.230000000000004,15.851999999999999L19.172000000000004,18.697L19.224000000000004,18.686C18.782000000000004,18.89,18.400000000000002,19.199,18.108000000000004,19.581L18.201000000000004,19.434L16.627000000000002,18.831L17.799000000000003,20.07L17.825000000000003,20.028C17.635,20.398999999999997,17.519000000000002,20.816,17.501,21.256999999999998L17.498,21.241L14.875,22.45C14.676,21.846,14.108,21.409,13.437,21.409C12.6,21.409,11.921,22.087,11.921,22.924999999999997C11.921,22.988999999999997,11.926,23.052999999999997,11.934,23.115999999999996L11.151,23.039999999999996C11.063,22.523999999999994,11.017,21.993999999999996,11.017,21.451999999999995ZM20.369,30.805C15.94,30.805,12.231,27.727,11.263,23.594L11.954,23.241C12.100000000000001,23.927,12.707,24.441,13.436,24.441C14.273,24.441,14.951,23.762,14.951,22.924999999999997C14.951,22.819999999999997,14.940000000000001,22.717999999999996,14.92,22.618L17.778,22.648C17.823,22.743,17.874,22.835,17.927999999999997,22.924L14.477999999999998,28.201L14.704999999999998,28.006L19.233999999999998,24.086C19.569999999999997,24.238999999999997,19.938999999999997,24.334,20.328,24.351999999999997L20.309,24.355999999999998L21.535,26.982999999999997C20.88,27.148999999999997,20.393,27.743,20.393,28.450999999999997C20.393,29.287999999999997,21.071,29.965999999999998,21.909,29.965999999999998C21.985,29.965999999999998,22.06,29.958999999999996,22.134,29.947999999999997L22.138,30.635999999999996C21.566000000000003,30.745999999999995,20.975,30.804999999999996,20.369000000000003,30.804999999999996ZM22.662,30.521L22.273,29.921C22.934,29.756999999999998,23.425,29.162,23.425,28.451C23.425,27.614,22.745,26.935000000000002,21.909,26.935000000000002C21.843,26.935000000000002,21.779,26.94,21.715999999999998,26.949V24.089000000000002L21.691,24.093000000000004C22.099999999999998,23.908000000000005,22.461,23.634000000000004,22.746,23.295L24.262,23.954L23.158,22.650000000000002C23.316000000000003,22.315,23.414,21.946,23.436,21.555000000000003L25.988,20.391000000000002C26.178,21.009,26.753999999999998,21.459000000000003,27.435,21.459000000000003C28.273,21.459000000000003,28.951,20.780000000000005,28.951,19.943000000000005C28.951,19.874000000000006,28.945,19.806000000000004,28.935000000000002,19.739000000000004L29.585,19.859000000000005C29.674,20.376000000000005,29.721,20.908000000000005,29.721,21.450000000000006C29.722,25.826000000000008,26.719,29.499000000000006,22.662,30.521000000000008Z" style="stroke-width: 3px; stroke-linejoin: round; opacity: 0; " stroke-width="3" stroke-linejoin="round" opacity="0"></path><path fill="url(#r-6864faf1fb34470899cdd2d69cd82238)" stroke="none" d="M20.154,9.135C19.65,9.135,19.154,9.166,18.666,9.224L18.63,9.044C18.608999999999998,8.940000000000001,18.57,8.846,18.518,8.761000000000001C18.899,8.453000000000001,19.143,7.9830000000000005,19.143,7.455000000000001C19.143,6.5280000000000005,18.392,5.777000000000001,17.465,5.777000000000001S15.786999999999999,6.528000000000001,15.786999999999999,7.455000000000001C15.786999999999999,8.200000000000001,16.272,8.831000000000001,16.944,9.05C16.923,9.155000000000001,16.923,9.266,16.944,9.378L16.977,9.545C11.645,10.95,7.712,15.804,7.712,21.578C7.712,28.448999999999998,13.283,34.019,20.154,34.019C27.025,34.019,32.595,28.448999999999998,32.595,21.577999999999996C32.596,14.705999999999996,27.025,9.134999999999996,20.153999999999996,9.134999999999996ZM20.369,12.1C24.823999999999998,12.1,28.552,15.216,29.491999999999997,19.387L28.915999999999997,19.621000000000002C28.767999999999997,18.94,28.160999999999998,18.430000000000003,27.435999999999996,18.430000000000003C26.598999999999997,18.430000000000003,25.919999999999995,19.109,25.919999999999995,19.946000000000005C25.919999999999995,20.021000000000004,25.927999999999994,20.094000000000005,25.937999999999995,20.167000000000005L23.166999999999994,20.139000000000006C23.112999999999996,20.024000000000008,23.052999999999994,19.913000000000007,22.984999999999996,19.806000000000008L26.383999999999997,14.696000000000009L26.438999999999997,14.613000000000008L21.672999999999995,18.672000000000008C21.320999999999994,18.515000000000008,20.932999999999996,18.424000000000007,20.524999999999995,18.416000000000007L20.610999999999994,18.398000000000007L19.433999999999994,15.813000000000006C20.073999999999995,15.636000000000006,20.544999999999995,15.050000000000006,20.544999999999995,14.354000000000006C20.544999999999995,13.517000000000007,19.866999999999994,12.839000000000006,19.028999999999996,12.839000000000006C18.953999999999997,12.839000000000006,18.881999999999998,12.846000000000005,18.809999999999995,12.857000000000006L18.867999999999995,12.223000000000006C19.356999999999996,12.141000000000005,19.857999999999993,12.100000000000007,20.368999999999996,12.100000000000007ZM16.146,7.455C16.146,6.728,16.737000000000002,6.1370000000000005,17.464000000000002,6.1370000000000005C18.191000000000003,6.1370000000000005,18.782000000000004,6.728000000000001,18.782000000000004,7.455C18.782000000000004,7.88,18.579000000000004,8.257,18.266000000000005,8.498C18.083000000000006,8.375,17.853000000000005,8.322,17.619000000000007,8.367999999999999C17.393000000000008,8.412999999999998,17.206000000000007,8.541999999999998,17.084000000000007,8.716999999999999C16.542000000000005,8.552999999999999,16.146000000000008,8.049,16.146000000000008,7.454999999999998ZM11.017000000000001,21.451999999999998C11.017000000000001,17.009,14.115000000000002,13.288999999999998,18.269000000000002,12.335999999999999L18.566000000000003,12.908999999999999C17.956000000000003,13.104999999999999,17.515000000000004,13.677,17.515000000000004,14.350999999999999C17.515000000000004,15.187999999999999,18.193000000000005,15.866999999999999,19.030000000000005,15.866999999999999C19.098000000000006,15.866999999999999,19.165000000000006,15.860999999999999,19.230000000000004,15.851999999999999L19.172000000000004,18.697L19.224000000000004,18.686C18.782000000000004,18.89,18.400000000000002,19.199,18.108000000000004,19.581L18.201000000000004,19.434L16.627000000000002,18.831L17.799000000000003,20.07L17.825000000000003,20.028C17.635,20.398999999999997,17.519000000000002,20.816,17.501,21.256999999999998L17.498,21.241L14.875,22.45C14.676,21.846,14.108,21.409,13.437,21.409C12.6,21.409,11.921,22.087,11.921,22.924999999999997C11.921,22.988999999999997,11.926,23.052999999999997,11.934,23.115999999999996L11.151,23.039999999999996C11.063,22.523999999999994,11.017,21.993999999999996,11.017,21.451999999999995ZM20.369,30.805C15.94,30.805,12.231,27.727,11.263,23.594L11.954,23.241C12.100000000000001,23.927,12.707,24.441,13.436,24.441C14.273,24.441,14.951,23.762,14.951,22.924999999999997C14.951,22.819999999999997,14.940000000000001,22.717999999999996,14.92,22.618L17.778,22.648C17.823,22.743,17.874,22.835,17.927999999999997,22.924L14.477999999999998,28.201L14.704999999999998,28.006L19.233999999999998,24.086C19.569999999999997,24.238999999999997,19.938999999999997,24.334,20.328,24.351999999999997L20.309,24.355999999999998L21.535,26.982999999999997C20.88,27.148999999999997,20.393,27.743,20.393,28.450999999999997C20.393,29.287999999999997,21.071,29.965999999999998,21.909,29.965999999999998C21.985,29.965999999999998,22.06,29.958999999999996,22.134,29.947999999999997L22.138,30.635999999999996C21.566000000000003,30.745999999999995,20.975,30.804999999999996,20.369000000000003,30.804999999999996ZM22.662,30.521L22.273,29.921C22.934,29.756999999999998,23.425,29.162,23.425,28.451C23.425,27.614,22.745,26.935000000000002,21.909,26.935000000000002C21.843,26.935000000000002,21.779,26.94,21.715999999999998,26.949V24.089000000000002L21.691,24.093000000000004C22.099999999999998,23.908000000000005,22.461,23.634000000000004,22.746,23.295L24.262,23.954L23.158,22.650000000000002C23.316000000000003,22.315,23.414,21.946,23.436,21.555000000000003L25.988,20.391000000000002C26.178,21.009,26.753999999999998,21.459000000000003,27.435,21.459000000000003C28.273,21.459000000000003,28.951,20.780000000000005,28.951,19.943000000000005C28.951,19.874000000000006,28.945,19.806000000000004,28.935000000000002,19.739000000000004L29.585,19.859000000000005C29.674,20.376000000000005,29.721,20.908000000000005,29.721,21.450000000000006C29.722,25.826000000000008,26.719,29.499000000000006,22.662,30.521000000000008Z" opacity="1" fill-opacity="1" style="opacity: 1; fill-opacity: 1; "></path><rect x="0" y="0" width="32" height="32" r="0" rx="0" ry="0" fill="#000000" stroke="#000" style="opacity: 0; " opacity="0"></rect></svg>