<svg xmlns="http://www.w3.org/2000/svg" version="1.1" width="100%" height="100%" viewBox="0 0 35 35"><desc>Created with Raphaël</desc><defs><linearGradient id="r-6283bb2467c6445ea632a73934c4fc2c" x1="0" y1="1" x2="6.123233995736766e-17" y2="0"><stop offset="0%" stop-color="#0050af"></stop><stop offset="100%" stop-color="#002c62"></stop></linearGradient></defs><path fill="none" stroke="#ffffff" d="M20,8.937999999999999C12.268,8.937999999999999,6,13.639,6,19.438C6,21.419,6.741,23.271,8.016,24.851999999999997L6,29.272L11.613,27.831999999999997C13.952,29.147999999999996,16.85,29.937999999999995,20,29.937999999999995C27.732,29.937999999999995,34,25.236999999999995,34,19.437999999999995S27.732,8.937999999999995,20,8.937999999999995ZM20.868,25.375H18.898999999999997V23.486H20.868V25.375ZM20.772,22.094H18.994999999999997L18.819,14.011000000000001H20.932L20.772,22.094Z" style="stroke-width: 3px; stroke-linejoin: round; opacity: 0; " stroke-width="3" stroke-linejoin="round" opacity="0"></path><path fill="url(#r-6283bb2467c6445ea632a73934c4fc2c)" stroke="none" d="M20,8.937999999999999C12.268,8.937999999999999,6,13.639,6,19.438C6,21.419,6.741,23.271,8.016,24.851999999999997L6,29.272L11.613,27.831999999999997C13.952,29.147999999999996,16.85,29.937999999999995,20,29.937999999999995C27.732,29.937999999999995,34,25.236999999999995,34,19.437999999999995S27.732,8.937999999999995,20,8.937999999999995ZM20.868,25.375H18.898999999999997V23.486H20.868V25.375ZM20.772,22.094H18.994999999999997L18.819,14.011000000000001H20.932L20.772,22.094Z" opacity="1" fill-opacity="1" style="opacity: 1; fill-opacity: 1; "></path><rect x="0" y="0" width="32" height="32" r="0" rx="0" ry="0" fill="#000000" stroke="#000" style="opacity: 0; " opacity="0"></rect></svg>