<svg xmlns="http://www.w3.org/2000/svg" version="1.1"><desc>Created with Raphaël</desc><defs><linearGradient id="r-62aaa6411be64a01a7ecee78f917865d" x1="0" y1="1" x2="6.123233995736766e-17" y2="0"><stop offset="0%" stop-color="#0050af"></stop><stop offset="100%" stop-color="#002c62"></stop></linearGradient></defs><path fill="none" stroke="#ffffff" d="M19.502000000000002,11.504C15.152000000000003,11.504,11.629000000000001,15.027,11.629000000000001,19.377C11.629000000000001,23.724,15.152000000000001,27.249,19.502000000000002,27.249C23.848000000000003,27.249,27.373000000000005,23.724,27.373000000000005,19.377C27.374000000000006,15.027,23.850000000000005,11.503999999999998,19.502000000000002,11.503999999999998ZM19.502000000000002,25.25C16.258000000000003,25.242,13.636000000000003,22.62,13.628000000000004,19.378C13.635000000000003,16.135,16.258000000000003,13.512,19.502000000000002,13.504000000000001C22.744000000000003,13.512,25.366000000000003,16.135,25.373000000000005,19.378C25.366000000000003,22.62,22.744000000000003,25.242,19.502000000000002,25.25ZM19.502000000000002,10.977C20.055000000000003,10.977,20.502000000000002,10.529,20.502000000000002,9.976V5.125000000000001C20.500000000000004,4.572000000000001,20.054000000000002,4.125000000000001,19.502000000000002,4.125000000000001C18.949,4.125000000000001,18.501,4.574000000000001,18.502000000000002,5.127000000000001V9.977C18.502000000000002,10.528,18.949,10.977,19.502000000000002,10.977ZM22.715000000000003,11.615C22.840000000000003,11.668000000000001,22.970000000000002,11.691,23.097000000000005,11.692C23.491000000000003,11.692,23.862000000000005,11.459,24.022000000000006,11.074L25.878000000000007,6.591C26.088000000000008,6.08,25.84700000000001,5.496,25.337000000000007,5.285C24.826000000000008,5.074,24.241000000000007,5.316,24.029000000000007,5.8260000000000005L22.174000000000007,10.31C21.963000000000008,10.82,22.205000000000005,11.405000000000001,22.715000000000007,11.615ZM25.440000000000005,13.436C25.635000000000005,13.63,25.891000000000005,13.729,26.147000000000006,13.729S26.659000000000006,13.630999999999998,26.854000000000006,13.436L30.284000000000006,10.003C30.675000000000004,9.613,30.674000000000007,8.98,30.284000000000006,8.588000000000001C29.892000000000007,8.198,29.259000000000007,8.198,28.869000000000007,8.590000000000002L25.44000000000001,12.021C25.049000000000007,12.412,25.049000000000007,13.045000000000002,25.44000000000001,13.436ZM27.263000000000005,16.16C27.421000000000006,16.545,27.794000000000004,16.777,28.186000000000007,16.777C28.313000000000006,16.777,28.44300000000001,16.752000000000002,28.569000000000006,16.699L33.04900000000001,14.842000000000002C33.56000000000001,14.631000000000002,33.80200000000001,14.045000000000002,33.59,13.535000000000002S32.794000000000004,12.783000000000001,32.283,12.995000000000001L27.802,14.852C27.291999999999998,15.064,27.051,15.65,27.262999999999998,16.16ZM33.752,18.371L28.901000000000003,18.372C28.349000000000004,18.372,27.901000000000003,18.82,27.903000000000002,19.373C27.903000000000002,19.926000000000002,28.35,20.372,28.901000000000003,20.372L33.753,20.37C34.306,20.37,34.752,19.921,34.752,19.37C34.752,18.817,34.304,18.369,33.752,18.371000000000002ZM33.054,23.898999999999997L28.572000000000003,22.044999999999998C28.060000000000002,21.833,27.475,22.075,27.265000000000004,22.586C27.054000000000006,23.096999999999998,27.296000000000003,23.682,27.806000000000004,23.894L32.288000000000004,25.747999999999998C32.414,25.798999999999996,32.544000000000004,25.822999999999997,32.67100000000001,25.822999999999997C33.06400000000001,25.822999999999997,33.43600000000001,25.590999999999998,33.596000000000004,25.205999999999996C33.806000000000004,24.694999999999997,33.563,24.108999999999995,33.054,23.898999999999997ZM26.860000000000003,25.311999999999998C26.469,24.921,25.837000000000003,24.921,25.446,25.313C25.055,25.703,25.056,26.334999999999997,25.446,26.726L28.880000000000003,30.154999999999998C29.075000000000003,30.349999999999998,29.330000000000002,30.447999999999997,29.586000000000002,30.447999999999997S30.099000000000004,30.349999999999998,30.294,30.154999999999998C30.685000000000002,29.762999999999998,30.683,29.13,30.294,28.74L26.86,25.311999999999998ZM24.029000000000003,27.674999999999997C23.818000000000005,27.163999999999998,23.233000000000004,26.923,22.722000000000005,27.133999999999997C22.212000000000003,27.345999999999997,21.970000000000006,27.930999999999997,22.182000000000006,28.441999999999997L24.042000000000005,32.922C24.201000000000004,33.306999999999995,24.573000000000004,33.538999999999994,24.967000000000006,33.538999999999994C25.095000000000006,33.538999999999994,25.225000000000005,33.51499999999999,25.350000000000005,33.462999999999994C25.861000000000004,33.251999999999995,26.102000000000004,32.666,25.890000000000004,32.153999999999996L24.029000000000003,27.674999999999997ZM19.512000000000004,27.778C18.959000000000003,27.778,18.512000000000004,28.226,18.512000000000004,28.778L18.516000000000005,33.629C18.516000000000005,34.181999999999995,18.965000000000007,34.628,19.516000000000005,34.628C20.069000000000006,34.628,20.516000000000005,34.18,20.514000000000006,33.628L20.511000000000006,28.776C20.511000000000006,28.226,20.062000000000005,27.777,19.512000000000008,27.778ZM16.296000000000003,27.142C15.786000000000003,26.932,15.202000000000004,27.173,14.990000000000002,27.685L13.138000000000002,32.168C12.928,32.679,13.171000000000001,33.263999999999996,13.681000000000001,33.475C13.806000000000001,33.527,13.935,33.551,14.063,33.551C14.455,33.551,14.828000000000001,33.317,14.987,32.932L16.84,28.447000000000003C17.051,27.937,16.807,27.353,16.296,27.142000000000003ZM13.570000000000004,25.325C13.178000000000004,24.933999999999997,12.545000000000003,24.936,12.155000000000005,25.326999999999998L8.729000000000005,28.759999999999998C8.338000000000005,29.151999999999997,8.340000000000005,29.782999999999998,8.731000000000005,30.174999999999997C8.926000000000005,30.368999999999996,9.181000000000004,30.467,9.437000000000005,30.467C9.694000000000004,30.467,9.950000000000005,30.369,10.145000000000005,30.174L13.572000000000005,26.74C13.961000000000004,26.348999999999997,13.961000000000004,25.715999999999998,13.570000000000004,25.325ZM11.746000000000004,22.604C11.533000000000005,22.095,10.949000000000003,21.852999999999998,10.439000000000004,22.064L5.9600000000000035,23.925C5.449000000000003,24.137,5.208000000000004,24.723,5.4200000000000035,25.233C5.580000000000004,25.618000000000002,5.951000000000003,25.849,6.344000000000004,25.849C6.471000000000004,25.849,6.602000000000004,25.825,6.727000000000004,25.773L11.206000000000003,23.912C11.715000000000003,23.698,11.957000000000003,23.113,11.746000000000002,22.604ZM11.100000000000003,19.392C11.100000000000003,18.839,10.653000000000004,18.393,10.100000000000003,18.393L5.249000000000003,18.399C4.696000000000003,18.399,4.248000000000003,18.847,4.2500000000000036,19.400000000000002C4.251000000000004,19.951,4.699000000000003,20.400000000000002,5.2500000000000036,20.398000000000003L10.102000000000004,20.392000000000003C10.654000000000003,20.392000000000003,11.102000000000004,19.942000000000004,11.100000000000003,19.392000000000003ZM5.9440000000000035,14.869L10.429000000000004,16.719C10.554000000000004,16.772000000000002,10.683000000000003,16.795,10.810000000000004,16.795C11.203000000000005,16.795,11.576000000000004,16.563000000000002,11.735000000000005,16.177000000000003C11.947000000000005,15.666000000000004,11.703000000000005,15.080000000000004,11.191000000000004,14.871000000000002L6.708000000000005,13.021000000000003C6.1970000000000045,12.811000000000002,5.613000000000005,13.053000000000003,5.402000000000005,13.563000000000002C5.190000000000005,14.074000000000002,5.435000000000005,14.657000000000002,5.944000000000004,14.869000000000003ZM12.137000000000004,13.451C12.332000000000004,13.644,12.586000000000004,13.742,12.842000000000004,13.742S13.355000000000004,13.644,13.551000000000004,13.447000000000001C13.942000000000004,13.058000000000002,13.940000000000003,12.424000000000001,13.547000000000004,12.033000000000001L10.113000000000003,8.609000000000002C9.723000000000003,8.219000000000001,9.088000000000003,8.221000000000002,8.699000000000003,8.612000000000002C8.308000000000003,9.002000000000002,8.310000000000004,9.636000000000003,8.701000000000004,10.026000000000002L12.137000000000004,13.451ZM14.964000000000004,11.084C15.124000000000004,11.468,15.496000000000004,11.699,15.887000000000004,11.699C16.015000000000004,11.699,16.145000000000003,11.674,16.271000000000004,11.622C16.781000000000006,11.41,17.024000000000004,10.824,16.811000000000003,10.315L14.947000000000003,5.835999999999999C14.735000000000003,5.326,14.149000000000003,5.084999999999999,13.639000000000003,5.297C13.129000000000003,5.51,12.888000000000003,6.096,13.100000000000003,6.6049999999999995L14.964000000000004,11.084Z" style="stroke-width: 3px; stroke-linejoin: round; opacity: 0; " stroke-width="3" stroke-linejoin="round" opacity="0"></path><path fill="url(#r-62aaa6411be64a01a7ecee78f917865d)" stroke="none" d="M19.502000000000002,11.504C15.152000000000003,11.504,11.629000000000001,15.027,11.629000000000001,19.377C11.629000000000001,23.724,15.152000000000001,27.249,19.502000000000002,27.249C23.848000000000003,27.249,27.373000000000005,23.724,27.373000000000005,19.377C27.374000000000006,15.027,23.850000000000005,11.503999999999998,19.502000000000002,11.503999999999998ZM19.502000000000002,25.25C16.258000000000003,25.242,13.636000000000003,22.62,13.628000000000004,19.378C13.635000000000003,16.135,16.258000000000003,13.512,19.502000000000002,13.504000000000001C22.744000000000003,13.512,25.366000000000003,16.135,25.373000000000005,19.378C25.366000000000003,22.62,22.744000000000003,25.242,19.502000000000002,25.25ZM19.502000000000002,10.977C20.055000000000003,10.977,20.502000000000002,10.529,20.502000000000002,9.976V5.125000000000001C20.500000000000004,4.572000000000001,20.054000000000002,4.125000000000001,19.502000000000002,4.125000000000001C18.949,4.125000000000001,18.501,4.574000000000001,18.502000000000002,5.127000000000001V9.977C18.502000000000002,10.528,18.949,10.977,19.502000000000002,10.977ZM22.715000000000003,11.615C22.840000000000003,11.668000000000001,22.970000000000002,11.691,23.097000000000005,11.692C23.491000000000003,11.692,23.862000000000005,11.459,24.022000000000006,11.074L25.878000000000007,6.591C26.088000000000008,6.08,25.84700000000001,5.496,25.337000000000007,5.285C24.826000000000008,5.074,24.241000000000007,5.316,24.029000000000007,5.8260000000000005L22.174000000000007,10.31C21.963000000000008,10.82,22.205000000000005,11.405000000000001,22.715000000000007,11.615ZM25.440000000000005,13.436C25.635000000000005,13.63,25.891000000000005,13.729,26.147000000000006,13.729S26.659000000000006,13.630999999999998,26.854000000000006,13.436L30.284000000000006,10.003C30.675000000000004,9.613,30.674000000000007,8.98,30.284000000000006,8.588000000000001C29.892000000000007,8.198,29.259000000000007,8.198,28.869000000000007,8.590000000000002L25.44000000000001,12.021C25.049000000000007,12.412,25.049000000000007,13.045000000000002,25.44000000000001,13.436ZM27.263000000000005,16.16C27.421000000000006,16.545,27.794000000000004,16.777,28.186000000000007,16.777C28.313000000000006,16.777,28.44300000000001,16.752000000000002,28.569000000000006,16.699L33.04900000000001,14.842000000000002C33.56000000000001,14.631000000000002,33.80200000000001,14.045000000000002,33.59,13.535000000000002S32.794000000000004,12.783000000000001,32.283,12.995000000000001L27.802,14.852C27.291999999999998,15.064,27.051,15.65,27.262999999999998,16.16ZM33.752,18.371L28.901000000000003,18.372C28.349000000000004,18.372,27.901000000000003,18.82,27.903000000000002,19.373C27.903000000000002,19.926000000000002,28.35,20.372,28.901000000000003,20.372L33.753,20.37C34.306,20.37,34.752,19.921,34.752,19.37C34.752,18.817,34.304,18.369,33.752,18.371000000000002ZM33.054,23.898999999999997L28.572000000000003,22.044999999999998C28.060000000000002,21.833,27.475,22.075,27.265000000000004,22.586C27.054000000000006,23.096999999999998,27.296000000000003,23.682,27.806000000000004,23.894L32.288000000000004,25.747999999999998C32.414,25.798999999999996,32.544000000000004,25.822999999999997,32.67100000000001,25.822999999999997C33.06400000000001,25.822999999999997,33.43600000000001,25.590999999999998,33.596000000000004,25.205999999999996C33.806000000000004,24.694999999999997,33.563,24.108999999999995,33.054,23.898999999999997ZM26.860000000000003,25.311999999999998C26.469,24.921,25.837000000000003,24.921,25.446,25.313C25.055,25.703,25.056,26.334999999999997,25.446,26.726L28.880000000000003,30.154999999999998C29.075000000000003,30.349999999999998,29.330000000000002,30.447999999999997,29.586000000000002,30.447999999999997S30.099000000000004,30.349999999999998,30.294,30.154999999999998C30.685000000000002,29.762999999999998,30.683,29.13,30.294,28.74L26.86,25.311999999999998ZM24.029000000000003,27.674999999999997C23.818000000000005,27.163999999999998,23.233000000000004,26.923,22.722000000000005,27.133999999999997C22.212000000000003,27.345999999999997,21.970000000000006,27.930999999999997,22.182000000000006,28.441999999999997L24.042000000000005,32.922C24.201000000000004,33.306999999999995,24.573000000000004,33.538999999999994,24.967000000000006,33.538999999999994C25.095000000000006,33.538999999999994,25.225000000000005,33.51499999999999,25.350000000000005,33.462999999999994C25.861000000000004,33.251999999999995,26.102000000000004,32.666,25.890000000000004,32.153999999999996L24.029000000000003,27.674999999999997ZM19.512000000000004,27.778C18.959000000000003,27.778,18.512000000000004,28.226,18.512000000000004,28.778L18.516000000000005,33.629C18.516000000000005,34.181999999999995,18.965000000000007,34.628,19.516000000000005,34.628C20.069000000000006,34.628,20.516000000000005,34.18,20.514000000000006,33.628L20.511000000000006,28.776C20.511000000000006,28.226,20.062000000000005,27.777,19.512000000000008,27.778ZM16.296000000000003,27.142C15.786000000000003,26.932,15.202000000000004,27.173,14.990000000000002,27.685L13.138000000000002,32.168C12.928,32.679,13.171000000000001,33.263999999999996,13.681000000000001,33.475C13.806000000000001,33.527,13.935,33.551,14.063,33.551C14.455,33.551,14.828000000000001,33.317,14.987,32.932L16.84,28.447000000000003C17.051,27.937,16.807,27.353,16.296,27.142000000000003ZM13.570000000000004,25.325C13.178000000000004,24.933999999999997,12.545000000000003,24.936,12.155000000000005,25.326999999999998L8.729000000000005,28.759999999999998C8.338000000000005,29.151999999999997,8.340000000000005,29.782999999999998,8.731000000000005,30.174999999999997C8.926000000000005,30.368999999999996,9.181000000000004,30.467,9.437000000000005,30.467C9.694000000000004,30.467,9.950000000000005,30.369,10.145000000000005,30.174L13.572000000000005,26.74C13.961000000000004,26.348999999999997,13.961000000000004,25.715999999999998,13.570000000000004,25.325ZM11.746000000000004,22.604C11.533000000000005,22.095,10.949000000000003,21.852999999999998,10.439000000000004,22.064L5.9600000000000035,23.925C5.449000000000003,24.137,5.208000000000004,24.723,5.4200000000000035,25.233C5.580000000000004,25.618000000000002,5.951000000000003,25.849,6.344000000000004,25.849C6.471000000000004,25.849,6.602000000000004,25.825,6.727000000000004,25.773L11.206000000000003,23.912C11.715000000000003,23.698,11.957000000000003,23.113,11.746000000000002,22.604ZM11.100000000000003,19.392C11.100000000000003,18.839,10.653000000000004,18.393,10.100000000000003,18.393L5.249000000000003,18.399C4.696000000000003,18.399,4.248000000000003,18.847,4.2500000000000036,19.400000000000002C4.251000000000004,19.951,4.699000000000003,20.400000000000002,5.2500000000000036,20.398000000000003L10.102000000000004,20.392000000000003C10.654000000000003,20.392000000000003,11.102000000000004,19.942000000000004,11.100000000000003,19.392000000000003ZM5.9440000000000035,14.869L10.429000000000004,16.719C10.554000000000004,16.772000000000002,10.683000000000003,16.795,10.810000000000004,16.795C11.203000000000005,16.795,11.576000000000004,16.563000000000002,11.735000000000005,16.177000000000003C11.947000000000005,15.666000000000004,11.703000000000005,15.080000000000004,11.191000000000004,14.871000000000002L6.708000000000005,13.021000000000003C6.1970000000000045,12.811000000000002,5.613000000000005,13.053000000000003,5.402000000000005,13.563000000000002C5.190000000000005,14.074000000000002,5.435000000000005,14.657000000000002,5.944000000000004,14.869000000000003ZM12.137000000000004,13.451C12.332000000000004,13.644,12.586000000000004,13.742,12.842000000000004,13.742S13.355000000000004,13.644,13.551000000000004,13.447000000000001C13.942000000000004,13.058000000000002,13.940000000000003,12.424000000000001,13.547000000000004,12.033000000000001L10.113000000000003,8.609000000000002C9.723000000000003,8.219000000000001,9.088000000000003,8.221000000000002,8.699000000000003,8.612000000000002C8.308000000000003,9.002000000000002,8.310000000000004,9.636000000000003,8.701000000000004,10.026000000000002L12.137000000000004,13.451ZM14.964000000000004,11.084C15.124000000000004,11.468,15.496000000000004,11.699,15.887000000000004,11.699C16.015000000000004,11.699,16.145000000000003,11.674,16.271000000000004,11.622C16.781000000000006,11.41,17.024000000000004,10.824,16.811000000000003,10.315L14.947000000000003,5.835999999999999C14.735000000000003,5.326,14.149000000000003,5.084999999999999,13.639000000000003,5.297C13.129000000000003,5.51,12.888000000000003,6.096,13.100000000000003,6.6049999999999995L14.964000000000004,11.084Z" opacity="1" fill-opacity="1" style="opacity: 1; fill-opacity: 1; "></path><rect x="0" y="0" width="32" height="32" r="0" rx="0" ry="0" fill="#000000" stroke="#000" style="opacity: 0; " opacity="0"></rect></svg>