<svg xmlns="http://www.w3.org/2000/svg" version="1.1" width="100%" height="100%" viewBox="0 0 35 35"><desc>Created with Raphaël</desc><defs><linearGradient id="r-c4813cc063ac425a85e533efc652b984" x1="0" y1="1" x2="6.123233995736766e-17" y2="0"><stop offset="0%" stop-color="#0050af"></stop><stop offset="100%" stop-color="#002c62"></stop></linearGradient></defs><path fill="none" stroke="#ffffff" d="M27.295,26.567H20.082C17.957,26.567,15.979000000000001,24.352,15.979000000000001,21.831V20.002H27.211C29.028,20.002,30.502,18.532999999999998,30.502,16.721C30.502,14.908,29.028,13.439,27.211,13.439H15.979V10.198C15.979,8.363,14.604,6.875,12.786999999999999,6.875C10.970999999999998,6.875,9.497,8.363,9.497,10.198V21.831C9.497,28.061,14.181999999999999,33.105,19.973,33.105H27.183999999999997C29.002,33.105,30.502,31.641999999999996,30.502,29.806999999999995S29.112,26.566999999999993,27.294999999999998,26.566999999999993Z" style="stroke-width: 3px; stroke-linejoin: round; opacity: 0; " stroke-width="3" stroke-linejoin="round" opacity="0"></path><path fill="url(#r-c4813cc063ac425a85e533efc652b984)" stroke="none" d="M27.295,26.567H20.082C17.957,26.567,15.979000000000001,24.352,15.979000000000001,21.831V20.002H27.211C29.028,20.002,30.502,18.532999999999998,30.502,16.721C30.502,14.908,29.028,13.439,27.211,13.439H15.979V10.198C15.979,8.363,14.604,6.875,12.786999999999999,6.875C10.970999999999998,6.875,9.497,8.363,9.497,10.198V21.831C9.497,28.061,14.181999999999999,33.105,19.973,33.105H27.183999999999997C29.002,33.105,30.502,31.641999999999996,30.502,29.806999999999995S29.112,26.566999999999993,27.294999999999998,26.566999999999993Z" opacity="1" fill-opacity="1" style="opacity: 1; fill-opacity: 1; "></path><rect x="0" y="0" width="32" height="32" r="0" rx="0" ry="0" fill="#000000" stroke="#000" style="opacity: 0; " opacity="0"></rect></svg>